<svg width="96" height="96" xmlns="http://www.w3.org/2000/svg" xmlns:xlink="http://www.w3.org/1999/xlink" overflow="hidden"><defs><clipPath id="clip0"><rect x="344" y="70" width="96" height="96"/></clipPath></defs><g clip-path="url(#clip0)" transform="translate(-344 -70)"><path d="M403 113C403 119.627 397.627 125 391 125 384.373 125 379 119.627 379 113 379 106.373 384.373 101 391 101 397.627 101 403 106.373 403 113Z" fill="#E9E9E9"/><path d="M416 99.2C416 101.409 414.209 103.2 412 103.2 409.791 103.2 408 101.409 408 99.2 408 96.9909 409.791 95.2 412 95.2 414.209 95.2 416 96.9909 416 99.2Z" fill="#E9E9E9"/><path d="M372 145.2C372 147.409 370.209 149.2 368 149.2 365.791 149.2 364 147.409 364 145.2 364 142.991 365.791 141.2 368 141.2 370.209 141.2 372 142.991 372 145.2Z" fill="#E9E9E9"/><path d="M430.6 96.2C427.3 90.1 420 86.8 410.2 86.8 400.8 86.8 390.1 89.8 380 95.4 358.4 107.1 346.7 126 353.4 138.3 355 141 357.3 143.3 360.1 144.7 360.2 143.3 360.6 142 361.4 140.9 359.5 139.8 358 138.3 357 136.4 351.5 126.4 363 109.2 382.1 98.8 391.6 93.6 401.7 90.7 410.4 90.7 418.7 90.7 424.7 93.3 427.3 98 429.9 102.7 428.8 109.2 424.4 116.1 419.7 123.4 411.8 130.3 402.3 135.6 393.5 140.4 384.3 143.2 376.1 143.6 376.2 144.1 376.3 144.6 376.3 145.2 376.3 146 376.1 146.8 375.9 147.6 384.8 147.2 394.8 144.3 404.3 139.1 414.4 133.6 422.8 126.2 427.9 118.3 432.8 110.1 433.9 102.2 430.6 96.2Z" fill="#E9E9E9"/><path d="M417.2 105.3C416.2 106.2 414.9 106.8 413.6 107.1 415.2 113 408.5 122.2 397.9 128 392.1 131.2 386 132.9 380.8 132.9 375.9 132.9 372.5 131.4 371 128.7 369.6 126.2 370.1 122.8 372.3 119.1 371.9 116.8 372 114.4 372.5 112.1 371.4 113.3 370.3 114.7 369.4 116.1 366 121.5 365.3 126.6 367.5 130.6 369.7 134.6 374.4 136.8 380.8 136.8 386.7 136.8 393.5 134.9 399.8 131.4 412.8 124.4 420.1 113.2 417.2 105.3Z" fill="#E9E9E9"/></g></svg>