<svg width="96" height="96" xmlns="http://www.w3.org/2000/svg" xmlns:xlink="http://www.w3.org/1999/xlink" overflow="hidden"><defs><clipPath id="clip0"><rect x="190" y="79" width="96" height="96"/></clipPath></defs><g clip-path="url(#clip0)" transform="translate(-190 -79)"><path d="M277.8 87.4C276.4 86 267.4 87.6 259.9 89.6 262.6 91.2 265.4 93.4 268.1 96.1 270.9 98.9 273.1 101.7 274.7 104.5 276.7 96.8 279.3 88.8 277.8 87.4Z" fill="#E9E9E9"/><path d="M222.1 115.9 218.7 114.6C217.3 114.1 215.8 114.4 214.7 115.4L198.8 131.3C196.2 133.9 198.6 138.4 202.2 137.6L215.5 134.6C216.6 129.6 218.4 122.9 222.1 115.9Z" fill="#E9E9E9"/><path d="M248.6 142C241.9 145.5 235.5 147.4 230.3 148.4L227.2 162.6C226.4 166.2 230.8 168.7 233.5 166L249.4 150.1C250.4 149.1 250.8 147.5 250.2 146.1L248.6 142Z" fill="#E9E9E9"/><path d="M254.5 91.4C248.6 93.8 241.9 97.9 235.4 104.4 223.5 116.3 220 130.7 219 138.9L225.2 145.1C233.4 144.1 247.9 140.7 259.8 128.8 266.3 122.3 270.4 115.7 272.8 109.8 271.5 106.5 268.9 102.6 265.2 98.8 261.6 95.3 257.8 92.7 254.5 91.4ZM259.6 113C257.3 115.3 253.5 115.3 251.1 113 248.8 110.7 248.8 106.9 251.1 104.5 253.4 102.2 257.2 102.2 259.6 104.5 261.9 106.9 261.9 110.7 259.6 113Z" fill="#E9E9E9"/><path d="M218.9 145.2C217.3 143.6 217.5 140.9 214.2 144.2 210.9 147.5 206 155 207.5 156.6 209.1 158.2 216.6 153.2 219.9 149.9 223.2 146.5 220.5 146.7 218.9 145.2Z" fill="#E9E9E9"/></g></svg>