<svg width="96" height="96" xmlns="http://www.w3.org/2000/svg" xmlns:xlink="http://www.w3.org/1999/xlink" overflow="hidden"><defs><clipPath id="clip0"><rect x="75" y="72" width="96" height="96"/></clipPath></defs><g clip-path="url(#clip0)" transform="translate(-75 -72)"><path d="M124.7 107.4 147.4 97.9 143.6 88.7 91.4 110.3 95.2 119.5 118.8 109.7 101.6 151.2C101.2 152.2 101.7 153.4 102.7 153.8 103 154 103.2 154 103.5 154 104.3 154 105 153.5 105.3 152.8L113.9 132 120.2 132 120.2 156C120.2 157.1 121.1 158 122.2 158 123.3 158 124.2 157.1 124.2 156L124.2 132 130.5 132 139.1 152.8C139.4 153.6 140.2 154 140.9 154 141.2 154 141.4 154 141.7 153.8 142.7 153.4 143.2 152.2 142.8 151.2L124.7 107.4ZM115.6 128 120.2 116.8 120.2 128 115.6 128ZM124.2 128 124.2 116.8 128.9 128 124.2 128Z" fill="#E9E9E9"/><path d="M86.2953 119.981 84.7645 116.285 88.8296 114.601 90.3604 118.297Z" fill="#E9E9E9"/><path d="M155.9 81.5 146.4 85.2 151.8 98.2 161.2 94.4Z" fill="#E9E9E9"/></g></svg>