<?xml version="1.0" standalone="no"?>
<!DOCTYPE svg PUBLIC "-//W3C//DTD SVG 20010904//EN"
 "http://www.w3.org/TR/2001/REC-SVG-20010904/DTD/svg10.dtd">
<svg version="1.0" xmlns="http://www.w3.org/2000/svg"
 width="3000.000000pt" height="3000.000000pt" viewBox="0 0 3000.000000 3000.000000"
 preserveAspectRatio="xMidYMid meet">
<metadata>
Created by potrace 1.14, written by Peter Selinger 2001-2017
</metadata>
<g transform="translate(0.000000,3000.000000) scale(0.100000,-0.100000)"
fill="#000000" stroke="none">
<path d="M14626 29733 c-1 -2 -75 -5 -162 -8 -308 -8 -342 -19 -276 -91 15
-16 43 -50 62 -73 19 -24 47 -58 61 -75 55 -65 187 -264 262 -396 97 -170 160
-314 154 -349 -3 -14 1 -41 8 -60 32 -93 35 -297 5 -436 -12 -55 -23 -111 -25
-125 -2 -14 -20 -79 -40 -145 -20 -66 -37 -124 -39 -130 -1 -5 -10 -28 -20
-50 -10 -22 -19 -47 -21 -55 -19 -86 -164 -351 -335 -610 -5 -8 -33 -51 -62
-95 -29 -44 -57 -83 -63 -87 -6 -5 -6 -8 0 -8 7 0 7 -3 0 -8 -11 -8 -26 -28
-133 -185 -62 -91 -215 -310 -551 -792 -24 -34 -127 -177 -177 -245 -301 -411
-288 -394 -294 -400 -4 -3 -22 -27 -41 -55 -18 -27 -37 -54 -42 -60 -4 -5 -21
-28 -37 -50 -16 -22 -36 -49 -44 -60 -42 -55 -154 -215 -175 -247 -12 -21 -27
-38 -32 -38 -5 0 -9 -5 -9 -11 0 -5 -19 -38 -43 -72 -23 -34 -52 -78 -64 -97
-11 -19 -51 -84 -88 -145 -62 -102 -89 -148 -153 -265 -14 -25 -28 -49 -32
-55 -4 -5 -26 -46 -50 -90 -23 -44 -55 -102 -70 -130 -125 -227 -579 -1132
-595 -1185 -1 -3 -19 -41 -40 -85 -113 -240 -135 -288 -135 -291 0 -3 -18 -43
-40 -90 -22 -47 -40 -88 -40 -91 0 -3 -13 -34 -30 -70 -16 -35 -30 -68 -30
-73 0 -5 -6 -21 -14 -37 -16 -31 -26 -54 -55 -128 -88 -224 -203 -571 -217
-660 -1 -5 -3 -12 -4 -15 -2 -5 -5 -19 -14 -55 -2 -11 -20 -84 -40 -163 -31
-123 -50 -205 -73 -312 -3 -14 -6 -29 -7 -35 -2 -5 -7 -32 -11 -60 -5 -27 -10
-52 -10 -55 -1 -3 -5 -27 -9 -55 -4 -27 -10 -57 -13 -65 -4 -8 -5 -19 -4 -23
1 -5 -4 -36 -10 -70 -6 -34 -13 -71 -14 -82 -5 -38 -15 -101 -20 -124 -2 -13
-7 -52 -10 -85 -3 -34 -8 -81 -11 -105 -4 -24 -8 -60 -9 -80 -1 -20 -3 -36 -4
-36 -20 0 -33 -1021 -17 -1310 11 -191 22 -328 30 -380 3 -16 8 -61 12 -100 7
-77 12 -117 14 -125 2 -3 2 -8 2 -11 -1 -3 6 -46 14 -95 8 -49 16 -100 18
-114 2 -14 13 -81 25 -150 20 -117 25 -145 35 -202 4 -24 34 -159 42 -193 3
-11 9 -39 14 -62 6 -24 14 -62 20 -85 5 -24 12 -54 14 -67 3 -13 10 -38 15
-55 6 -17 13 -45 16 -62 12 -72 157 -508 206 -619 14 -32 153 -401 194 -515
21 -58 42 -116 48 -130 5 -14 11 -29 12 -35 2 -5 17 -46 35 -90 50 -125 170
-454 170 -465 0 -6 9 -36 19 -68 21 -63 59 -239 68 -317 7 -61 7 -192 0 -221
-8 -32 -56 -131 -86 -178 -14 -23 -30 -48 -36 -58 -74 -122 -208 -285 -267
-323 -35 -22 -78 -15 -175 30 -161 75 -235 146 -387 375 -42 63 -82 123 -89
133 -15 21 -32 50 -118 198 -99 170 -120 209 -214 400 -47 96 -90 182 -95 191
-6 10 -10 23 -10 30 0 7 -9 24 -20 38 -11 14 -20 31 -20 38 0 7 -13 40 -30 75
-61 131 -245 581 -255 627 -2 8 -14 42 -26 75 -23 65 -32 92 -79 260 -17 61
-37 135 -46 165 -8 30 -27 102 -40 160 -14 58 -27 110 -28 115 -2 6 -6 28 -10
50 -5 22 -14 65 -22 95 -7 30 -15 69 -18 85 -3 17 -8 41 -11 55 -3 14 -10 45
-15 70 -6 25 -13 61 -15 80 -3 19 -10 50 -15 69 -5 19 -7 38 -4 43 3 4 1 8 -3
8 -5 0 -9 8 -9 18 -1 16 -18 111 -29 162 -8 38 -26 138 -30 168 -2 15 -6 41
-8 57 -3 17 -8 57 -12 90 -3 33 -8 71 -10 85 -6 32 -12 92 -22 200 -9 105 -9
822 0 982 4 64 9 161 12 215 3 54 7 114 10 133 3 19 7 60 10 90 9 92 15 133
35 235 20 97 37 162 104 385 26 85 53 175 61 200 7 25 47 144 87 265 41 121
87 261 103 310 37 122 77 235 113 325 28 71 153 338 173 370 5 8 13 24 18 35
5 11 41 76 80 143 50 88 71 134 71 158 0 34 -1 35 -37 31 -44 -4 -142 -33
-181 -53 -15 -8 -30 -14 -35 -14 -4 0 -26 -9 -50 -19 -23 -11 -78 -35 -122
-53 -44 -19 -125 -60 -180 -92 -55 -32 -113 -66 -130 -75 -16 -9 -35 -20 -42
-26 -31 -25 -41 -32 -95 -69 -32 -22 -58 -43 -58 -47 0 -4 -8 -10 -17 -13 -10
-3 -31 -19 -48 -34 -16 -15 -56 -47 -87 -70 -63 -46 -480 -458 -569 -562 -30
-36 -82 -101 -115 -145 -32 -44 -63 -85 -69 -91 -5 -6 -19 -27 -30 -47 -11
-20 -23 -37 -27 -37 -5 0 -8 -6 -8 -12 0 -7 -18 -41 -40 -76 -22 -34 -40 -65
-40 -68 0 -2 -11 -21 -23 -42 -47 -74 -274 -515 -275 -535 -1 -4 -12 -29 -26
-55 -73 -138 -235 -546 -228 -574 1 -5 -2 -8 -8 -8 -5 0 -10 -6 -10 -14 0 -8
-27 -97 -60 -198 -33 -101 -65 -201 -71 -223 -5 -22 -14 -49 -19 -60 -4 -11
-13 -38 -18 -60 -6 -22 -22 -83 -37 -135 -35 -126 -65 -241 -70 -263 -2 -10
-7 -27 -10 -37 -3 -10 -7 -27 -9 -37 -2 -10 -9 -38 -16 -63 -7 -25 -13 -52
-15 -60 -2 -8 -15 -60 -29 -115 -23 -93 -61 -258 -72 -315 -3 -14 -7 -32 -9
-40 -2 -8 -7 -31 -10 -50 -3 -19 -10 -57 -15 -85 -6 -27 -13 -65 -15 -82 -3
-18 -7 -46 -10 -63 -3 -16 -7 -44 -9 -61 -3 -17 -7 -42 -10 -57 -6 -31 -12
-68 -21 -132 -3 -25 -12 -86 -20 -136 -8 -50 -17 -121 -21 -158 -3 -37 -7 -76
-9 -86 -2 -11 -6 -47 -10 -82 -3 -35 -8 -81 -10 -103 -17 -171 -20 -211 -30
-400 -9 -153 -14 -283 -19 -475 -2 -91 -7 -232 -10 -315 -8 -204 -20 -832 -20
-1092 -1 -117 -3 -213 -6 -213 -3 0 -6 -586 -7 -1302 -5 -4385 -4 -6530 1
-6564 9 -49 16 -57 101 -124 39 -30 72 -57 75 -60 3 -3 21 -17 40 -30 41 -29
72 -54 110 -91 15 -14 43 -36 61 -49 19 -13 36 -27 39 -30 3 -3 21 -17 40 -30
19 -13 37 -27 40 -30 3 -3 21 -17 40 -30 19 -13 37 -27 40 -30 3 -4 32 -26 65
-51 33 -24 62 -46 65 -49 3 -3 52 -41 110 -85 113 -86 135 -103 155 -123 8 -6
17 -12 22 -12 4 0 24 -14 43 -30 45 -38 84 -68 600 -461 219 -166 250 -190
266 -207 7 -6 17 -12 22 -12 6 0 12 -3 14 -8 2 -4 39 -34 83 -67 44 -33 85
-64 91 -70 7 -5 22 -18 35 -27 13 -9 60 -45 104 -79 44 -34 132 -100 195 -148
63 -47 117 -88 120 -91 3 -3 32 -25 65 -50 33 -25 62 -47 65 -50 3 -3 41 -32
85 -66 44 -33 121 -92 170 -129 50 -38 137 -105 195 -148 58 -44 119 -91 135
-104 17 -13 38 -31 48 -39 9 -8 20 -14 23 -14 3 0 19 -13 37 -30 18 -16 37
-30 42 -30 6 0 17 -9 25 -20 8 -11 20 -20 27 -20 7 0 13 -4 13 -8 0 -4 28 -28
62 -52 34 -23 68 -49 77 -56 9 -8 72 -57 141 -109 221 -168 374 -286 397 -305
7 -5 15 -10 18 -10 3 0 13 -8 23 -18 26 -23 52 -44 83 -64 14 -9 32 -23 40
-30 8 -7 75 -59 149 -116 195 -147 381 -289 410 -312 14 -10 52 -40 85 -64 33
-25 67 -51 75 -58 8 -7 30 -24 50 -37 19 -13 37 -27 40 -31 3 -4 26 -22 51
-41 128 -95 204 -153 209 -159 3 -3 21 -17 40 -30 19 -14 46 -35 60 -47 14
-13 28 -23 32 -23 3 0 13 -6 20 -13 7 -7 65 -52 128 -100 63 -49 126 -97 140
-108 14 -11 57 -43 95 -71 39 -29 72 -54 75 -58 5 -6 142 -110 269 -204 36
-27 68 -52 71 -56 3 -3 21 -17 40 -30 19 -14 42 -30 50 -37 8 -7 53 -42 100
-77 47 -36 90 -69 95 -73 63 -49 189 -144 265 -201 52 -40 102 -77 110 -84 8
-7 41 -33 75 -58 151 -115 190 -145 195 -150 3 -3 21 -17 40 -30 19 -13 37
-27 40 -30 9 -10 85 -65 115 -85 17 -10 35 -24 40 -30 6 -6 43 -35 82 -65 93
-69 118 -71 187 -16 28 23 78 61 111 86 33 24 66 50 75 57 14 12 183 142 250
193 18 14 58 44 89 67 31 23 61 47 68 53 7 5 17 10 24 10 6 0 17 6 23 13 6 7
56 47 111 88 55 41 107 79 115 86 24 19 289 221 350 267 30 22 57 44 60 47 3
3 32 25 65 50 33 24 62 47 63 52 2 4 7 7 12 7 5 0 19 9 32 20 12 11 109 85
213 165 105 79 199 152 210 160 11 9 33 26 49 38 111 83 315 240 332 254 11
10 34 27 50 38 16 10 34 23 41 29 7 6 31 26 55 44 222 168 425 323 437 333 7
7 68 53 135 103 186 140 290 220 302 231 6 6 22 17 34 25 12 8 30 22 40 30 45
38 94 76 109 84 9 6 50 36 91 68 41 32 84 66 95 74 11 9 70 53 130 100 283
216 399 304 510 388 66 50 122 93 125 96 3 3 21 17 40 30 38 27 65 48 85 68 8
6 18 12 24 12 6 0 11 3 11 8 0 4 28 28 62 52 50 37 139 104 193 148 39 31 261
200 279 212 30 21 100 74 106 81 3 3 32 25 65 50 33 24 62 46 65 49 4 4 109
84 135 102 5 4 26 20 45 35 19 16 62 49 95 73 33 25 62 47 65 50 3 3 21 17 40
30 19 14 46 35 60 47 14 13 28 23 31 23 3 0 15 8 27 17 11 10 35 29 52 43 18
14 44 34 59 46 69 54 316 241 344 260 18 12 45 33 60 48 15 14 32 26 37 26 4
0 10 3 12 8 2 4 68 56 148 117 80 60 154 117 164 127 11 10 23 18 26 18 4 0
16 8 27 17 27 23 72 59 158 124 105 79 236 179 270 206 17 13 35 27 40 31 6 4
29 23 51 42 23 19 49 42 60 50 252 200 260 207 278 264 4 11 6 359 6 775 -1
416 -1 761 -1 766 0 6 0 291 0 635 0 344 0 634 0 645 0 11 -1 720 -1 1575 -1
855 -2 1650 -4 1765 -7 408 -21 1010 -23 1010 -1 0 -4 81 -6 180 -9 292 -11
345 -30 695 -7 115 -13 208 -20 290 -3 41 -8 98 -10 125 -11 143 -33 344 -49
451 -4 23 -9 73 -11 110 -2 38 -7 94 -9 124 -3 30 -8 80 -10 110 -3 30 -5 55
-6 55 -1 0 -3 18 -5 40 -5 59 -15 128 -20 145 -2 8 -6 38 -9 66 -3 28 -8 58
-11 66 -3 8 -8 32 -10 54 -3 32 -35 194 -50 254 -5 23 -23 102 -29 130 -3 14
-10 43 -15 65 -6 22 -13 55 -16 74 -3 19 -10 42 -16 52 -5 11 -8 19 -5 19 3 0
0 15 -5 33 -6 17 -12 43 -15 57 -2 14 -18 70 -33 125 -16 55 -33 116 -36 135
-4 19 -14 48 -21 65 -11 26 -47 133 -59 175 -54 200 -288 727 -414 935 -23 37
-41 69 -41 72 0 18 -274 364 -352 446 -21 21 -38 40 -38 42 0 6 -374 375 -452
446 -45 41 -86 79 -92 84 -6 6 -45 39 -86 75 -41 36 -77 68 -80 71 -4 4 -215
164 -281 212 -19 14 -15 12 -209 134 -85 54 -159 100 -164 102 -6 2 -50 28
-99 58 -120 73 -176 100 -233 114 -27 7 -54 15 -59 20 -6 4 -22 10 -35 12 -14
3 -54 12 -90 20 -78 19 -118 27 -160 32 -51 7 -104 15 -130 21 -14 2 -151 6
-305 8 l-281 4 4 -36 c3 -21 13 -45 23 -55 11 -10 19 -21 19 -25 0 -4 10 -18
23 -32 12 -14 49 -59 82 -100 32 -41 72 -88 87 -105 15 -16 28 -35 28 -41 0
-6 7 -17 14 -24 8 -6 61 -73 118 -148 56 -75 106 -141 110 -147 28 -34 121
-161 164 -225 100 -146 184 -273 184 -276 0 -2 16 -26 36 -54 19 -27 36 -53
36 -57 1 -4 12 -26 26 -48 31 -49 128 -244 172 -345 18 -41 40 -93 50 -115 49
-114 159 -460 176 -555 3 -14 7 -33 10 -42 8 -28 22 -99 28 -148 1 -9 5 -20 8
-25 3 -6 9 -32 13 -60 5 -27 9 -54 11 -60 22 -99 41 -207 50 -289 3 -27 9 -72
14 -100 9 -56 6 -338 -3 -354 -4 -5 -9 -29 -12 -53 -6 -53 -14 -88 -35 -169
-70 -270 -183 -426 -420 -587 -115 -77 -168 -101 -215 -96 -22 2 -44 8 -49 14
-6 5 -16 9 -23 9 -28 0 -152 92 -208 155 -33 37 -65 73 -71 79 -25 27 -136
178 -187 256 -31 47 -60 90 -65 96 -5 5 -20 30 -33 55 -13 24 -27 46 -30 49
-11 9 -109 178 -109 189 0 5 -4 11 -8 13 -21 8 -132 266 -187 433 -24 71 -35
112 -64 215 -6 25 -21 74 -32 110 -10 36 -21 74 -23 85 -3 11 -16 62 -30 113
-13 51 -25 95 -25 97 -1 13 -13 64 -23 100 -5 22 -12 49 -13 60 -2 11 -6 29
-8 40 -3 11 -22 103 -42 205 -21 102 -42 205 -47 230 -10 47 -25 131 -34 190
-3 19 -7 46 -10 60 -5 27 -15 100 -19 140 -2 14 -4 25 -5 25 -1 0 -3 14 -5 30
-2 17 -6 55 -10 85 -7 58 -12 99 -19 153 -2 17 -9 68 -15 112 -11 79 -18 150
-27 242 -2 26 -6 71 -8 98 -25 269 -41 718 -40 1115 0 255 9 528 18 575 2 11
7 45 10 75 18 152 61 330 137 560 51 158 110 309 139 362 6 10 10 23 10 29 0
36 312 641 431 836 36 59 97 174 101 190 1 5 6 13 10 18 22 27 58 87 58 97 0
42 214 265 317 331 37 24 75 47 83 51 16 7 30 16 95 57 22 13 51 30 65 37 14
6 32 16 40 21 97 60 265 154 296 165 43 15 108 44 259 116 86 41 123 58 145
65 10 4 46 17 65 25 11 4 65 25 120 46 87 34 100 42 103 64 4 32 -21 56 -108
105 -112 64 -205 91 -347 101 -48 3 -95 9 -103 14 -22 11 -283 1 -396 -15 -16
-2 -49 -7 -74 -10 -57 -8 -88 -13 -123 -19 -15 -3 -53 -10 -85 -16 -65 -12
-82 -15 -137 -30 -22 -7 -58 -15 -80 -19 -38 -8 -476 -154 -495 -166 -6 -4
-20 -8 -32 -10 -38 -8 -163 -56 -353 -138 -102 -44 -223 -111 -305 -170 -47
-34 -87 -64 -90 -67 -3 -3 -18 -16 -35 -29 -135 -102 -497 -464 -686 -686 -19
-21 -41 -47 -49 -55 -36 -39 -60 -71 -60 -79 0 -5 -4 -11 -9 -13 -5 -1 -44
-50 -87 -108 -42 -58 -80 -107 -83 -110 -9 -7 -81 -130 -81 -137 0 -4 -6 -14
-14 -22 -8 -9 -68 -124 -134 -256 -102 -205 -159 -326 -272 -580 -10 -22 -48
-116 -85 -210 -37 -93 -72 -181 -78 -195 -5 -14 -11 -29 -13 -35 -1 -5 -23
-72 -48 -147 -37 -110 -74 -243 -90 -323 -1 -5 -5 -19 -9 -30 -3 -11 -8 -31
-11 -45 -2 -14 -10 -47 -16 -75 -6 -27 -14 -59 -16 -70 -7 -29 -34 -174 -39
-212 -3 -18 -7 -50 -10 -70 -3 -21 -7 -45 -10 -53 -2 -8 -6 -42 -10 -75 -3
-33 -8 -76 -10 -95 -8 -48 -16 -231 -16 -368 -1 -62 -4 -124 -8 -139 l-7 -27
-48 45 c-26 24 -57 60 -69 79 -11 19 -24 37 -28 40 -12 9 -126 214 -157 280
-78 172 -150 402 -157 505 -1 11 -5 31 -8 45 -3 14 -9 52 -12 85 -4 33 -8 74
-10 91 -35 267 -40 775 -11 1049 3 28 8 78 11 113 4 35 8 72 10 84 3 11 7 46
10 77 4 31 8 67 10 81 2 14 7 45 10 70 13 93 15 107 28 186 7 39 57 294 62
314 2 8 11 40 20 70 9 30 23 80 31 110 31 113 204 580 231 624 4 6 8 16 9 21
3 12 72 171 116 265 17 36 31 70 32 75 1 6 4 15 8 20 3 6 26 55 51 110 97 216
118 261 128 279 6 10 29 53 52 95 35 67 62 116 144 261 11 19 58 100 103 180
116 202 202 364 253 480 74 166 152 406 213 655 5 19 26 132 38 200 3 17 8 45
11 64 3 19 8 53 10 75 2 23 7 64 10 91 20 166 20 585 0 720 -2 17 -7 60 -10
95 -6 65 -10 101 -22 195 -3 28 -6 60 -7 73 0 12 -4 22 -9 22 -4 0 -6 4 -3 8
3 5 -4 62 -15 128 -11 65 -22 135 -25 154 -3 19 -8 38 -10 41 -2 4 -6 24 -9
45 -3 22 -10 50 -15 64 -8 26 -29 104 -34 130 -1 8 -9 35 -16 60 -8 25 -14 47
-14 50 -1 5 -8 23 -41 110 -87 227 -314 663 -462 890 -13 19 -29 43 -36 54
-55 85 -185 245 -251 311 -101 100 -153 145 -165 145 -5 0 -11 3 -13 8 -11 24
-259 192 -284 192 -2 0 -23 8 -47 19 -89 39 -149 60 -229 80 -79 19 -174 32
-182 24z"/>
</g>
</svg>
