<?xml version="1.0" encoding="UTF-8" standalone="no"?>
<svg
   xmlns:dc="http://purl.org/dc/elements/1.1/"
   xmlns:cc="http://creativecommons.org/ns#"
   xmlns:rdf="http://www.w3.org/1999/02/22-rdf-syntax-ns#"
   xmlns:svg="http://www.w3.org/2000/svg"
   xmlns="http://www.w3.org/2000/svg"
   id="svg8"
   version="1.1"
   viewBox="0 0 380.47101 86.264999"
   height="86.264999mm"
   width="380.47101mm">
  <defs
     id="defs2" />
  <metadata
     id="metadata5">
    <rdf:RDF>
      <cc:Work
         rdf:about="">
        <dc:format>image/svg+xml</dc:format>
        <dc:type
           rdf:resource="http://purl.org/dc/dcmitype/StillImage" />
        <dc:title></dc:title>
      </cc:Work>
    </rdf:RDF>
  </metadata>
  <g
     id="layer1">
    <g
       style="stroke-width:0.959234"
       id="g1041"
       transform="matrix(1,0,0,1.0868028,-62.252638,-6.9833531)">
      <path
         style="fill:#cdf4cd;stroke-width:0.959234"
         d="M 252.48809,85.800593 H 62.252678 V 46.113093 6.4255934 H 252.48809 442.72351 v 39.6874996 39.6875 z"
         id="path1107" />
      <path
         style="fill:#c1f2c1;stroke-width:0.959234"
         d="m 252.48809,85.800226 -190.235412,2.3e-5 V 46.112921 6.4255934 H 252.48809 442.72351 V 46.112898 85.800202 Z m 7.27604,-1.322549 h 0.1323 v -0.132292 -0.132292 h -0.1323 -0.13229 v 0.132292 0.132292 z m 1.85209,-0.79375 h 0.13229 v -0.132292 -0.132292 h -0.13229 -0.13229 v 0.132292 0.132292 z m 1.85208,-0.79375 h 0.13229 v -0.132292 -0.132292 h -0.13229 -0.13229 v 0.132292 0.132292 z m 3.175,-1.322917 h 0.13229 v -0.132292 -0.132291 h -0.13229 -0.13229 v 0.132291 0.132292 z m 1.85208,-0.79375 h 0.1323 v -0.132292 -0.132291 h -0.1323 -0.13229 v 0.132291 0.132292 z m 3.175,-1.322917 h 0.1323 V 79.318302 79.18601 h -0.1323 -0.13229 v 0.132292 0.132291 z m 1.85209,-0.79375 h 0.13229 V 78.524552 78.39226 h -0.13229 -0.13229 v 0.132292 0.132291 z m 5.02708,-2.116666 h 0.13229 v -0.132292 -0.132292 h -0.13229 -0.13229 v 0.132292 0.132292 z"
         id="path1105" />
      <path
         style="fill:#b4efb4;stroke-width:0.959234"
         d="m 252.48809,85.800226 -190.235412,2.3e-5 V 46.112921 6.4255934 H 252.48809 442.72351 V 46.112898 85.800202 Z m 5.95313,-0.793383 h 0.13229 V 84.874552 84.74226 h -0.13229 -0.13229 v 0.132292 0.132291 z m 1.32291,-0.529166 h 0.1323 v -0.132292 -0.132292 h -0.1323 -0.13229 v 0.132292 0.132292 z m 1.85209,-0.79375 h 0.13229 v -0.132292 -0.132292 h -0.13229 -0.13229 v 0.132292 0.132292 z m 1.85208,-0.79375 h 0.13229 v -0.132292 -0.132292 h -0.13229 -0.13229 v 0.132292 0.132292 z m 3.175,-1.322917 h 0.13229 v -0.132292 -0.132291 h -0.13229 -0.13229 v 0.132291 0.132292 z m 1.85208,-0.79375 h 0.1323 v -0.132292 -0.132291 h -0.1323 -0.13229 v 0.132291 0.132292 z m 3.175,-1.322917 h 0.1323 V 79.318302 79.18601 h -0.1323 -0.13229 v 0.132292 0.132291 z m 1.85209,-0.79375 h 0.13229 V 78.524552 78.39226 h -0.13229 -0.13229 v 0.132292 0.132291 z m 5.02708,-2.116666 h 0.13229 v -0.132292 -0.132292 h -0.13229 -0.13229 v 0.132292 0.132292 z m 6.87917,-2.910417 h 0.13229 v -0.132292 -0.132291 h -0.13229 -0.13229 v 0.132291 0.132292 z m 5.02708,-2.116667 h 0.13229 V 71.380802 71.24851 h -0.13229 -0.13229 v 0.132292 0.132291 z"
         id="path1103" />
      <path
         style="fill:#a7eda7;stroke-width:0.959234"
         d="m 252.48809,85.800226 -190.235412,2.3e-5 V 46.112921 6.4255934 H 252.48809 442.72351 V 46.112898 85.800202 Z m 5.95313,-0.793383 h 0.13229 V 84.874552 84.74226 h -0.13229 -0.13229 v 0.132292 0.132291 z m 1.32291,-0.529166 h 0.1323 v -0.132292 -0.132292 h -0.1323 -0.13229 v 0.132292 0.132292 z m 1.85209,-0.79375 h 0.13229 v -0.132292 -0.132292 h -0.13229 -0.13229 v 0.132292 0.132292 z m 1.85208,-0.79375 h 0.13229 v -0.132292 -0.132292 h -0.13229 -0.13229 v 0.132292 0.132292 z m 3.175,-1.322917 h 0.13229 v -0.132292 -0.132291 h -0.13229 -0.13229 v 0.132291 0.132292 z m 1.85208,-0.79375 h 0.1323 v -0.132292 -0.132291 h -0.1323 -0.13229 v 0.132291 0.132292 z m 3.175,-1.322917 h 0.1323 V 79.318302 79.18601 h -0.1323 -0.13229 v 0.132292 0.132291 z m 1.85209,-0.79375 h 0.13229 V 78.524552 78.39226 h -0.13229 -0.13229 v 0.132292 0.132291 z m 1.85208,-0.79375 h 0.13229 V 77.730802 77.59851 h -0.13229 -0.13229 v 0.132292 0.132291 z m 3.175,-1.322916 h 0.13229 v -0.132292 -0.132292 h -0.13229 -0.13229 v 0.132292 0.132292 z m 1.85208,-0.79375 h 0.1323 v -0.132292 -0.132292 h -0.1323 -0.13229 v 0.132292 0.132292 z m 5.02709,-2.116667 h 0.13229 v -0.132292 -0.132291 h -0.13229 -0.13229 v 0.132291 0.132292 z m 5.02708,-2.116667 h 0.13229 V 71.380802 71.24851 h -0.13229 -0.13229 v 0.132292 0.132291 z"
         id="path1101" />
      <path
         style="fill:#9bea9b;stroke-width:0.959234"
         d="m 252.48809,85.800226 -190.235412,2.3e-5 V 46.112921 6.4255934 H 252.48809 442.72351 V 46.112898 85.800202 Z m 5.95313,-0.793383 h 0.13229 V 84.874552 84.74226 h -0.13229 -0.13229 v 0.132292 0.132291 z m 1.32291,-0.529166 h 0.1323 v -0.132292 -0.132292 h -0.1323 -0.13229 v 0.132292 0.132292 z m 0.52917,-0.264584 h 0.13229 V 84.080802 83.94851 h -0.13229 -0.13229 v 0.132292 0.132291 z m 1.32292,-0.529166 h 0.13229 v -0.132292 -0.132292 h -0.13229 -0.13229 v 0.132292 0.132292 z m 1.85208,-0.79375 h 0.13229 v -0.132292 -0.132292 h -0.13229 -0.13229 v 0.132292 0.132292 z m 1.85208,-0.79375 h 0.1323 v -0.132292 -0.132292 h -0.1323 -0.13229 v 0.132292 0.132292 z m 1.32292,-0.529167 h 0.13229 v -0.132292 -0.132291 h -0.13229 -0.13229 v 0.132291 0.132292 z m 1.85208,-0.79375 h 0.1323 v -0.132292 -0.132291 h -0.1323 -0.13229 v 0.132291 0.132292 z m 1.85209,-0.79375 h 0.13229 v -0.132292 -0.132291 h -0.13229 -0.13229 v 0.132291 0.132292 z m 1.32291,-0.529167 h 0.1323 V 79.318302 79.18601 h -0.1323 -0.13229 v 0.132292 0.132291 z m 0.52917,-0.264583 h 0.13229 v -0.132292 -0.132291 h -0.13229 -0.13229 v 0.132291 0.132292 z m 1.32292,-0.529167 h 0.13229 V 78.524552 78.39226 h -0.13229 -0.13229 v 0.132292 0.132291 z m 1.85208,-0.79375 h 0.13229 V 77.730802 77.59851 h -0.13229 -0.13229 v 0.132292 0.132291 z m 1.85208,-0.79375 h 0.1323 V 76.937052 76.80476 h -0.1323 -0.13229 v 0.132292 0.132291 z m 1.32292,-0.529166 h 0.13229 v -0.132292 -0.132292 h -0.13229 -0.13229 v 0.132292 0.132292 z m 1.85208,-0.79375 h 0.1323 v -0.132292 -0.132292 h -0.1323 -0.13229 v 0.132292 0.132292 z m 1.85209,-0.79375 h 0.13229 v -0.132292 -0.132292 h -0.13229 -0.13229 v 0.132292 0.132292 z m 3.175,-1.322917 h 0.13229 v -0.132292 -0.132291 h -0.13229 -0.13229 v 0.132291 0.132292 z m 1.85208,-0.79375 h 0.13229 v -0.132292 -0.132291 h -0.13229 -0.13229 v 0.132291 0.132292 z m 3.175,-1.322917 h 0.13229 V 71.380802 71.24851 h -0.13229 -0.13229 v 0.132292 0.132291 z m 1.85208,-0.79375 h 0.1323 V 70.587052 70.45476 h -0.1323 -0.13229 v 0.132292 0.132291 z m 5.02709,-2.116666 h 0.13229 v -0.132292 -0.132292 h -0.13229 -0.13229 v 0.132292 0.132292 z m 5.02708,-2.116667 h 0.13229 v -0.132292 -0.132291 h -0.13229 -0.13229 v 0.132291 0.132292 z m 1.85208,-0.79375 h 0.1323 v -0.132292 -0.132291 h -0.1323 -0.13229 v 0.132291 0.132292 z m 5.02709,-2.116667 h 0.13229 V 63.443302 63.31101 h -0.13229 -0.13229 v 0.132292 0.132291 z"
         id="path1099" />
      <path
         style="fill:#8fe68f;stroke-width:0.959234"
         d="m 252.48809,85.800226 -190.235412,2.3e-5 V 46.112921 6.4255934 H 252.48809 442.72351 V 46.112898 85.800202 Z m 4.63021,-0.264216 h 0.13229 v -0.132292 -0.132291 h -0.13229 -0.13229 v 0.132291 0.132292 z m 1.32292,-0.529167 h 0.13229 V 84.874552 84.74226 h -0.13229 -0.13229 v 0.132292 0.132291 z m 0.52916,-0.264583 h 0.1323 v -0.132292 -0.132291 h -0.1323 -0.13229 v 0.132291 0.132292 z m 0.79375,-0.264583 h 0.1323 v -0.132292 -0.132292 h -0.1323 -0.13229 v 0.132292 0.132292 z m 0.52917,-0.264584 h 0.13229 V 84.080802 83.94851 h -0.13229 -0.13229 v 0.132292 0.132291 z m 0.52917,-0.264583 h 0.13229 v -0.132292 -0.132291 h -0.13229 -0.13229 v 0.132291 0.132292 z m 0.79375,-0.264583 h 0.13229 v -0.132292 -0.132292 h -0.13229 -0.13229 v 0.132292 0.132292 z m 0.52916,-0.264584 h 0.1323 V 83.287052 83.15476 h -0.1323 -0.13229 v 0.132292 0.132291 z m 1.32292,-0.529166 h 0.13229 v -0.132292 -0.132292 h -0.13229 -0.13229 v 0.132292 0.132292 z m 0.52917,-0.264584 h 0.13229 V 82.493302 82.36101 h -0.13229 -0.13229 v 0.132292 0.132291 z m 1.32291,-0.529166 h 0.1323 v -0.132292 -0.132292 h -0.1323 -0.13229 v 0.132292 0.132292 z m 0.52917,-0.264584 h 0.13229 V 81.699552 81.56726 h -0.13229 -0.13229 v 0.132292 0.132291 z m 0.79375,-0.264583 h 0.13229 v -0.132292 -0.132291 h -0.13229 -0.13229 v 0.132291 0.132292 z m 0.52917,-0.264583 h 0.13229 v -0.132292 -0.132292 h -0.13229 -0.13229 v 0.132292 0.132292 z m 1.32291,-0.529167 h 0.1323 v -0.132292 -0.132291 h -0.1323 -0.13229 v 0.132291 0.132292 z m 0.52917,-0.264583 h 0.13229 v -0.132292 -0.132292 h -0.13229 -0.13229 v 0.132292 0.132292 z m 1.32292,-0.529167 h 0.13229 v -0.132292 -0.132291 h -0.13229 -0.13229 v 0.132291 0.132292 z m 0.52916,-0.264583 h 0.1323 v -0.132292 -0.132292 h -0.1323 -0.13229 v 0.132292 0.132292 z m 0.79375,-0.264584 h 0.1323 V 79.318302 79.18601 h -0.1323 -0.13229 v 0.132292 0.132291 z m 0.52917,-0.264583 h 0.13229 v -0.132292 -0.132291 h -0.13229 -0.13229 v 0.132291 0.132292 z m 1.32292,-0.529167 h 0.13229 V 78.524552 78.39226 h -0.13229 -0.13229 v 0.132292 0.132291 z m 0.52916,-0.264583 h 0.1323 v -0.132292 -0.132291 h -0.1323 -0.13229 v 0.132291 0.132292 z m 1.32292,-0.529167 h 0.13229 V 77.730802 77.59851 h -0.13229 -0.13229 v 0.132292 0.132291 z m 0.52917,-0.264583 h 0.13229 v -0.132292 -0.132291 h -0.13229 -0.13229 v 0.132291 0.132292 z m 1.32291,-0.529167 h 0.1323 V 76.937052 76.80476 h -0.1323 -0.13229 v 0.132292 0.132291 z m 1.32292,-0.529166 h 0.13229 v -0.132292 -0.132292 h -0.13229 -0.13229 v 0.132292 0.132292 z m 0.52917,-0.264584 h 0.13229 V 76.143302 76.01101 h -0.13229 -0.13229 v 0.132292 0.132291 z m 1.32291,-0.529166 h 0.1323 v -0.132292 -0.132292 h -0.1323 -0.13229 v 0.132292 0.132292 z m 0.52917,-0.264584 h 0.13229 V 75.349552 75.21726 h -0.13229 -0.13229 v 0.132292 0.132291 z m 1.32292,-0.529166 h 0.13229 v -0.132292 -0.132292 h -0.13229 -0.13229 v 0.132292 0.132292 z m 0.52916,-0.264584 h 0.1323 V 74.555802 74.42351 h -0.1323 -0.13229 v 0.132292 0.132291 z m 1.32292,-0.529166 h 0.13229 v -0.132292 -0.132292 h -0.13229 -0.13229 v 0.132292 0.132292 z m 1.32292,-0.529167 h 0.13229 v -0.132292 -0.132291 h -0.13229 -0.13229 v 0.132291 0.132292 z m 0.52916,-0.264583 h 0.1323 v -0.132292 -0.132292 h -0.1323 -0.13229 v 0.132292 0.132292 z m 1.32292,-0.529167 h 0.13229 v -0.132292 -0.132291 h -0.13229 -0.13229 v 0.132291 0.132292 z m 0.52917,-0.264583 h 0.13229 v -0.132292 -0.132292 h -0.13229 -0.13229 v 0.132292 0.132292 z m 1.32291,-0.529167 h 0.1323 v -0.132292 -0.132291 h -0.1323 -0.13229 v 0.132291 0.132292 z m 1.32292,-0.529167 h 0.13229 V 71.380802 71.24851 h -0.13229 -0.13229 v 0.132292 0.132291 z m 0.52917,-0.264583 h 0.13229 v -0.132292 -0.132291 h -0.13229 -0.13229 v 0.132291 0.132292 z m 1.32291,-0.529167 h 0.1323 V 70.587052 70.45476 h -0.1323 -0.13229 v 0.132292 0.132291 z m 0.52917,-0.264583 h 0.13229 v -0.132292 -0.132291 h -0.13229 -0.13229 v 0.132291 0.132292 z m 1.32292,-0.529167 h 0.13229 V 69.793302 69.66101 h -0.13229 -0.13229 v 0.132292 0.132291 z m 1.85208,-0.79375 h 0.13229 V 68.999552 68.86726 h -0.13229 -0.13229 v 0.132292 0.132291 z m 1.32292,-0.529166 h 0.13229 v -0.132292 -0.132292 h -0.13229 -0.13229 v 0.132292 0.132292 z m 0.52916,-0.264584 h 0.1323 V 68.205802 68.07351 h -0.1323 -0.13229 v 0.132292 0.132291 z m 1.32292,-0.529166 h 0.13229 v -0.132292 -0.132292 h -0.13229 -0.13229 v 0.132292 0.132292 z m 1.85208,-0.79375 h 0.1323 v -0.132292 -0.132292 h -0.1323 -0.13229 v 0.132292 0.132292 z m 1.32292,-0.529167 h 0.13229 v -0.132292 -0.132291 h -0.13229 -0.13229 v 0.132291 0.132292 z m 0.52917,-0.264583 h 0.13229 v -0.132292 -0.132292 h -0.13229 -0.13229 v 0.132292 0.132292 z m 1.32291,-0.529167 h 0.1323 v -0.132292 -0.132291 h -0.1323 -0.13229 v 0.132291 0.132292 z m 1.85209,-0.79375 h 0.13229 v -0.132292 -0.132291 h -0.13229 -0.13229 v 0.132291 0.132292 z m 1.85208,-0.79375 h 0.13229 v -0.132292 -0.132291 h -0.13229 -0.13229 v 0.132291 0.132292 z m 1.32292,-0.529167 h 0.13229 V 63.443302 63.31101 h -0.13229 -0.13229 v 0.132292 0.132291 z m 1.85208,-0.79375 h 0.13229 V 62.649552 62.51726 h -0.13229 -0.13229 v 0.132292 0.132291 z m 1.85208,-0.79375 h 0.1323 V 61.855802 61.72351 h -0.1323 -0.13229 v 0.132292 0.132291 z m 1.85209,-0.79375 h 0.13229 V 61.062052 60.92976 h -0.13229 -0.13229 v 0.132292 0.132291 z m 1.32291,-0.529166 h 0.1323 v -0.132292 -0.132292 h -0.1323 -0.13229 v 0.132292 0.132292 z m 1.85209,-0.79375 h 0.13229 v -0.132292 -0.132292 h -0.13229 -0.13229 v 0.132292 0.132292 z m 1.85208,-0.79375 h 0.13229 v -0.132292 -0.132292 h -0.13229 -0.13229 v 0.132292 0.132292 z m 1.32292,-0.529167 h 0.13229 v -0.132292 -0.132291 h -0.13229 -0.13229 v 0.132291 0.132292 z m 1.85208,-0.79375 h 0.13229 v -0.132292 -0.132291 h -0.13229 -0.13229 v 0.132291 0.132292 z m 1.85208,-0.79375 h 0.1323 v -0.132292 -0.132291 h -0.1323 -0.13229 v 0.132291 0.132292 z m 3.175,-1.322917 h 0.1323 V 55.505802 55.37351 h -0.1323 -0.13229 v 0.132292 0.132291 z"
         id="path1097" />
      <path
         style="fill:#82e482;stroke-width:0.959234"
         d="m 252.48809,85.800226 -190.235412,2.3e-5 V 46.112921 6.4255934 H 252.48809 442.72351 V 46.112898 85.800202 Z m 4.63021,-0.264216 h 0.13229 v -0.132292 -0.132291 h -0.13229 -0.13229 v 0.132291 0.132292 z m 0.52917,-0.264583 h 0.13229 v -0.132292 -0.132292 h -0.13229 -0.13229 v 0.132292 0.132292 z m 0.79375,-0.264584 h 0.13229 V 84.874552 84.74226 h -0.13229 -0.13229 v 0.132292 0.132291 z m 0.52916,-0.264583 h 0.1323 v -0.132292 -0.132291 h -0.1323 -0.13229 v 0.132291 0.132292 z m 0.79375,-0.264583 h 0.1323 v -0.132292 -0.132292 h -0.1323 -0.13229 v 0.132292 0.132292 z m 0.52917,-0.264584 h 0.13229 V 84.080802 83.94851 h -0.13229 -0.13229 v 0.132292 0.132291 z m 0.52917,-0.264583 h 0.13229 v -0.132292 -0.132291 h -0.13229 -0.13229 v 0.132291 0.132292 z m 0.79375,-0.264583 h 0.13229 v -0.132292 -0.132292 h -0.13229 -0.13229 v 0.132292 0.132292 z m 0.52916,-0.264584 h 0.1323 V 83.287052 83.15476 h -0.1323 -0.13229 v 0.132292 0.132291 z m 0.52917,-0.264583 h 0.13229 v -0.132292 -0.132291 h -0.13229 -0.13229 v 0.132291 0.132292 z m 0.79375,-0.264583 h 0.13229 v -0.132292 -0.132292 h -0.13229 -0.13229 v 0.132292 0.132292 z m 0.52917,-0.264584 h 0.13229 V 82.493302 82.36101 h -0.13229 -0.13229 v 0.132292 0.132291 z m 1.32291,-0.529166 h 0.1323 v -0.132292 -0.132292 h -0.1323 -0.13229 v 0.132292 0.132292 z m 0.52917,-0.264584 h 0.13229 V 81.699552 81.56726 h -0.13229 -0.13229 v 0.132292 0.132291 z m 0.79375,-0.264583 h 0.13229 v -0.132292 -0.132291 h -0.13229 -0.13229 v 0.132291 0.132292 z m 0.52917,-0.264583 h 0.13229 v -0.132292 -0.132292 h -0.13229 -0.13229 v 0.132292 0.132292 z m 0.52916,-0.264584 h 0.1323 V 80.905802 80.77351 h -0.1323 -0.13229 v 0.132292 0.132291 z m 0.79375,-0.264583 h 0.1323 v -0.132292 -0.132291 h -0.1323 -0.13229 v 0.132291 0.132292 z m 0.52917,-0.264583 h 0.13229 v -0.132292 -0.132292 h -0.13229 -0.13229 v 0.132292 0.132292 z m 1.32292,-0.529167 h 0.13229 v -0.132292 -0.132291 h -0.13229 -0.13229 v 0.132291 0.132292 z m 0.52916,-0.264583 h 0.1323 v -0.132292 -0.132292 h -0.1323 -0.13229 v 0.132292 0.132292 z m 0.79375,-0.264584 h 0.1323 V 79.318302 79.18601 h -0.1323 -0.13229 v 0.132292 0.132291 z m 0.52917,-0.264583 h 0.13229 v -0.132292 -0.132291 h -0.13229 -0.13229 v 0.132291 0.132292 z m 0.52917,-0.264583 h 0.13229 v -0.132292 -0.132292 h -0.13229 -0.13229 v 0.132292 0.132292 z m 0.79375,-0.264584 h 0.13229 V 78.524552 78.39226 h -0.13229 -0.13229 v 0.132292 0.132291 z m 0.52916,-0.264583 h 0.1323 v -0.132292 -0.132291 h -0.1323 -0.13229 v 0.132291 0.132292 z m 1.32292,-0.529167 h 0.13229 V 77.730802 77.59851 h -0.13229 -0.13229 v 0.132292 0.132291 z m 0.52917,-0.264583 h 0.13229 v -0.132292 -0.132291 h -0.13229 -0.13229 v 0.132291 0.132292 z m 1.32291,-0.529167 h 0.1323 V 76.937052 76.80476 h -0.1323 -0.13229 v 0.132292 0.132291 z m 0.52917,-0.264583 h 0.13229 v -0.132292 -0.132291 h -0.13229 -0.13229 v 0.132291 0.132292 z m 0.79375,-0.264583 h 0.13229 v -0.132292 -0.132292 h -0.13229 -0.13229 v 0.132292 0.132292 z m 0.52917,-0.264584 h 0.13229 V 76.143302 76.01101 h -0.13229 -0.13229 v 0.132292 0.132291 z m 0.52916,-0.264583 h 0.1323 v -0.132292 -0.132291 h -0.1323 -0.13229 v 0.132291 0.132292 z m 0.79375,-0.264583 h 0.1323 v -0.132292 -0.132292 h -0.1323 -0.13229 v 0.132292 0.132292 z m 0.52917,-0.264584 h 0.13229 V 75.349552 75.21726 h -0.13229 -0.13229 v 0.132292 0.132291 z m 1.32292,-0.529166 h 0.13229 v -0.132292 -0.132292 h -0.13229 -0.13229 v 0.132292 0.132292 z m 0.52916,-0.264584 h 0.1323 V 74.555802 74.42351 h -0.1323 -0.13229 v 0.132292 0.132291 z m 1.32292,-0.529166 h 0.13229 v -0.132292 -0.132292 h -0.13229 -0.13229 v 0.132292 0.132292 z m 0.52917,-0.264584 h 0.13229 V 73.762052 73.62976 h -0.13229 -0.13229 v 0.132292 0.132291 z m 0.79375,-0.264583 h 0.13229 v -0.132292 -0.132291 h -0.13229 -0.13229 v 0.132291 0.132292 z m 0.52916,-0.264583 h 0.1323 v -0.132292 -0.132292 h -0.1323 -0.13229 v 0.132292 0.132292 z m 1.32292,-0.529167 h 0.13229 v -0.132292 -0.132291 h -0.13229 -0.13229 v 0.132291 0.132292 z m 0.52917,-0.264583 h 0.13229 v -0.132292 -0.132292 h -0.13229 -0.13229 v 0.132292 0.132292 z m 1.32291,-0.529167 h 0.1323 v -0.132292 -0.132291 h -0.1323 -0.13229 v 0.132291 0.132292 z m 0.52917,-0.264583 h 0.13229 v -0.132292 -0.132292 h -0.13229 -0.13229 v 0.132292 0.132292 z m 0.79375,-0.264584 h 0.13229 V 71.380802 71.24851 h -0.13229 -0.13229 v 0.132292 0.132291 z m 0.52917,-0.264583 h 0.13229 v -0.132292 -0.132291 h -0.13229 -0.13229 v 0.132291 0.132292 z m 1.32291,-0.529167 h 0.1323 V 70.587052 70.45476 h -0.1323 -0.13229 v 0.132292 0.132291 z m 0.52917,-0.264583 h 0.13229 v -0.132292 -0.132291 h -0.13229 -0.13229 v 0.132291 0.132292 z m 1.32292,-0.529167 h 0.13229 V 69.793302 69.66101 h -0.13229 -0.13229 v 0.132292 0.132291 z m 0.52916,-0.264583 h 0.1323 v -0.132292 -0.132291 h -0.1323 -0.13229 v 0.132291 0.132292 z m 1.32292,-0.529167 h 0.13229 V 68.999552 68.86726 h -0.13229 -0.13229 v 0.132292 0.132291 z m 1.32292,-0.529166 h 0.13229 v -0.132292 -0.132292 h -0.13229 -0.13229 v 0.132292 0.132292 z m 0.52916,-0.264584 h 0.1323 V 68.205802 68.07351 h -0.1323 -0.13229 v 0.132292 0.132291 z m 1.32292,-0.529166 h 0.13229 v -0.132292 -0.132292 h -0.13229 -0.13229 v 0.132292 0.132292 z m 0.52917,-0.264584 h 0.13229 V 67.412052 67.27976 h -0.13229 -0.13229 v 0.132292 0.132291 z m 1.32291,-0.529166 h 0.1323 v -0.132292 -0.132292 h -0.1323 -0.13229 v 0.132292 0.132292 z m 1.32292,-0.529167 h 0.13229 v -0.132292 -0.132291 h -0.13229 -0.13229 v 0.132291 0.132292 z m 0.52917,-0.264583 h 0.13229 v -0.132292 -0.132292 h -0.13229 -0.13229 v 0.132292 0.132292 z m 1.32291,-0.529167 h 0.1323 v -0.132292 -0.132291 h -0.1323 -0.13229 v 0.132291 0.132292 z m 0.52917,-0.264583 h 0.13229 v -0.132292 -0.132292 h -0.13229 -0.13229 v 0.132292 0.132292 z m 1.32292,-0.529167 h 0.13229 v -0.132292 -0.132291 h -0.13229 -0.13229 v 0.132291 0.132292 z m 1.85208,-0.79375 h 0.13229 v -0.132292 -0.132291 h -0.13229 -0.13229 v 0.132291 0.132292 z m 1.32292,-0.529167 h 0.13229 V 63.443302 63.31101 h -0.13229 -0.13229 v 0.132292 0.132291 z m 0.52916,-0.264583 h 0.1323 v -0.132292 -0.132291 h -0.1323 -0.13229 v 0.132291 0.132292 z m 1.32292,-0.529167 h 0.13229 V 62.649552 62.51726 h -0.13229 -0.13229 v 0.132292 0.132291 z m 0.52917,-0.264583 h 0.13229 v -0.132292 -0.132291 h -0.13229 -0.13229 v 0.132291 0.132292 z m 1.32291,-0.529167 h 0.1323 V 61.855802 61.72351 h -0.1323 -0.13229 v 0.132292 0.132291 z m 1.85209,-0.79375 h 0.13229 V 61.062052 60.92976 h -0.13229 -0.13229 v 0.132292 0.132291 z m 1.32291,-0.529166 h 0.1323 v -0.132292 -0.132292 h -0.1323 -0.13229 v 0.132292 0.132292 z m 0.52917,-0.264584 h 0.13229 V 60.268302 60.13601 h -0.13229 -0.13229 v 0.132292 0.132291 z m 1.32292,-0.529166 h 0.13229 v -0.132292 -0.132292 h -0.13229 -0.13229 v 0.132292 0.132292 z m 1.85208,-0.79375 h 0.13229 v -0.132292 -0.132292 h -0.13229 -0.13229 v 0.132292 0.132292 z m 1.32292,-0.529167 h 0.13229 v -0.132292 -0.132291 h -0.13229 -0.13229 v 0.132291 0.132292 z m 0.52916,-0.264583 h 0.1323 v -0.132292 -0.132292 h -0.1323 -0.13229 v 0.132292 0.132292 z m 1.32292,-0.529167 h 0.13229 v -0.132292 -0.132291 h -0.13229 -0.13229 v 0.132291 0.132292 z m 1.85208,-0.79375 h 0.1323 v -0.132292 -0.132291 h -0.1323 -0.13229 v 0.132291 0.132292 z m 1.85209,-0.79375 h 0.13229 v -0.132292 -0.132291 h -0.13229 -0.13229 v 0.132291 0.132292 z m 1.32291,-0.529167 h 0.1323 V 55.505802 55.37351 h -0.1323 -0.13229 v 0.132292 0.132291 z"
         id="path1095" />
      <path
         style="fill:#75e275;stroke-width:0.959234"
         d="m 252.48809,85.800226 -190.235412,2.3e-5 V 46.112921 6.4255934 H 252.48809 442.72351 V 46.112898 85.800202 Z m 4.63021,-0.264216 h 0.13229 v -0.132292 -0.132291 h -0.13229 -0.13229 v 0.132291 0.132292 z m 0.52917,-0.264583 h 0.13229 v -0.132292 -0.132292 h -0.13229 -0.13229 v 0.132292 0.132292 z m 0.79375,-0.264584 h 0.13229 V 84.874552 84.74226 h -0.13229 -0.13229 v 0.132292 0.132291 z m 0.52916,-0.264583 h 0.1323 v -0.132292 -0.132291 h -0.1323 -0.13229 v 0.132291 0.132292 z m 0.79375,-0.264583 h 0.1323 v -0.132292 -0.132292 h -0.1323 -0.13229 v 0.132292 0.132292 z m 0.52917,-0.264584 h 0.13229 V 84.080802 83.94851 h -0.13229 -0.13229 v 0.132292 0.132291 z m 0.52917,-0.264583 h 0.13229 v -0.132292 -0.132291 h -0.13229 -0.13229 v 0.132291 0.132292 z m 0.79375,-0.264583 h 0.13229 v -0.132292 -0.132292 h -0.13229 -0.13229 v 0.132292 0.132292 z m 0.52916,-0.264584 h 0.1323 V 83.287052 83.15476 h -0.1323 -0.13229 v 0.132292 0.132291 z m 0.52917,-0.264583 h 0.13229 v -0.132292 -0.132291 h -0.13229 -0.13229 v 0.132291 0.132292 z m 0.79375,-0.264583 h 0.13229 v -0.132292 -0.132292 h -0.13229 -0.13229 v 0.132292 0.132292 z m 0.52917,-0.264584 h 0.13229 V 82.493302 82.36101 h -0.13229 -0.13229 v 0.132292 0.132291 z m 1.32291,-0.529166 h 0.1323 v -0.132292 -0.132292 h -0.1323 -0.13229 v 0.132292 0.132292 z m 0.52917,-0.264584 h 0.13229 V 81.699552 81.56726 h -0.13229 -0.13229 v 0.132292 0.132291 z m 0.79375,-0.264583 h 0.13229 v -0.132292 -0.132291 h -0.13229 -0.13229 v 0.132291 0.132292 z m 0.52917,-0.264583 h 0.13229 v -0.132292 -0.132292 h -0.13229 -0.13229 v 0.132292 0.132292 z m 0.52916,-0.264584 h 0.1323 V 80.905802 80.77351 h -0.1323 -0.13229 v 0.132292 0.132291 z m 0.79375,-0.264583 h 0.1323 v -0.132292 -0.132291 h -0.1323 -0.13229 v 0.132291 0.132292 z m 0.52917,-0.264583 h 0.13229 v -0.132292 -0.132292 h -0.13229 -0.13229 v 0.132292 0.132292 z m 0.52917,-0.264584 h 0.13229 V 80.112052 79.97976 h -0.13229 -0.13229 v 0.132292 0.132291 z m 0.79375,-0.264583 h 0.13229 v -0.132292 -0.132291 h -0.13229 -0.13229 v 0.132291 0.132292 z m 0.52916,-0.264583 h 0.1323 v -0.132292 -0.132292 h -0.1323 -0.13229 v 0.132292 0.132292 z m 0.79375,-0.264584 h 0.1323 V 79.318302 79.18601 h -0.1323 -0.13229 v 0.132292 0.132291 z m 0.52917,-0.264583 h 0.13229 v -0.132292 -0.132291 h -0.13229 -0.13229 v 0.132291 0.132292 z m 0.52917,-0.264583 h 0.13229 v -0.132292 -0.132292 h -0.13229 -0.13229 v 0.132292 0.132292 z m 0.79375,-0.264584 h 0.13229 V 78.524552 78.39226 h -0.13229 -0.13229 v 0.132292 0.132291 z m 0.52916,-0.264583 h 0.1323 v -0.132292 -0.132291 h -0.1323 -0.13229 v 0.132291 0.132292 z m 0.52917,-0.264583 h 0.13229 v -0.132292 -0.132292 h -0.13229 -0.13229 v 0.132292 0.132292 z m 0.79375,-0.264584 h 0.13229 V 77.730802 77.59851 h -0.13229 -0.13229 v 0.132292 0.132291 z m 0.52917,-0.264583 h 0.13229 v -0.132292 -0.132291 h -0.13229 -0.13229 v 0.132291 0.132292 z m 1.32291,-0.529167 h 0.1323 V 76.937052 76.80476 h -0.1323 -0.13229 v 0.132292 0.132291 z m 0.52917,-0.264583 h 0.13229 v -0.132292 -0.132291 h -0.13229 -0.13229 v 0.132291 0.132292 z m 0.79375,-0.264583 h 0.13229 v -0.132292 -0.132292 h -0.13229 -0.13229 v 0.132292 0.132292 z m 0.52917,-0.264584 h 0.13229 V 76.143302 76.01101 h -0.13229 -0.13229 v 0.132292 0.132291 z m 0.52916,-0.264583 h 0.1323 v -0.132292 -0.132291 h -0.1323 -0.13229 v 0.132291 0.132292 z m 0.79375,-0.264583 h 0.1323 v -0.132292 -0.132292 h -0.1323 -0.13229 v 0.132292 0.132292 z m 0.52917,-0.264584 h 0.13229 V 75.349552 75.21726 h -0.13229 -0.13229 v 0.132292 0.132291 z m 1.32292,-0.529166 h 0.13229 v -0.132292 -0.132292 h -0.13229 -0.13229 v 0.132292 0.132292 z m 0.52916,-0.264584 h 0.1323 V 74.555802 74.42351 h -0.1323 -0.13229 v 0.132292 0.132291 z m 1.32292,-0.529166 h 0.13229 v -0.132292 -0.132292 h -0.13229 -0.13229 v 0.132292 0.132292 z m 0.52917,-0.264584 h 0.13229 V 73.762052 73.62976 h -0.13229 -0.13229 v 0.132292 0.132291 z m 0.79375,-0.264583 h 0.13229 v -0.132292 -0.132291 h -0.13229 -0.13229 v 0.132291 0.132292 z m 0.52916,-0.264583 h 0.1323 v -0.132292 -0.132292 h -0.1323 -0.13229 v 0.132292 0.132292 z m 1.32292,-0.529167 h 0.13229 v -0.132292 -0.132291 h -0.13229 -0.13229 v 0.132291 0.132292 z m 0.52917,-0.264583 h 0.13229 v -0.132292 -0.132292 h -0.13229 -0.13229 v 0.132292 0.132292 z m 1.32291,-0.529167 h 0.1323 v -0.132292 -0.132291 h -0.1323 -0.13229 v 0.132291 0.132292 z m 0.52917,-0.264583 h 0.13229 v -0.132292 -0.132292 h -0.13229 -0.13229 v 0.132292 0.132292 z m 0.79375,-0.264584 h 0.13229 V 71.380802 71.24851 h -0.13229 -0.13229 v 0.132292 0.132291 z m 0.52917,-0.264583 h 0.13229 v -0.132292 -0.132291 h -0.13229 -0.13229 v 0.132291 0.132292 z m 1.32291,-0.529167 h 0.1323 V 70.587052 70.45476 h -0.1323 -0.13229 v 0.132292 0.132291 z m 0.52917,-0.264583 h 0.13229 v -0.132292 -0.132291 h -0.13229 -0.13229 v 0.132291 0.132292 z m 1.32292,-0.529167 h 0.13229 V 69.793302 69.66101 h -0.13229 -0.13229 v 0.132292 0.132291 z m 0.52916,-0.264583 h 0.1323 v -0.132292 -0.132291 h -0.1323 -0.13229 v 0.132291 0.132292 z m 1.32292,-0.529167 h 0.13229 V 68.999552 68.86726 h -0.13229 -0.13229 v 0.132292 0.132291 z m 1.32292,-0.529166 h 0.13229 v -0.132292 -0.132292 h -0.13229 -0.13229 v 0.132292 0.132292 z m 0.52916,-0.264584 h 0.1323 V 68.205802 68.07351 h -0.1323 -0.13229 v 0.132292 0.132291 z m 1.32292,-0.529166 h 0.13229 v -0.132292 -0.132292 h -0.13229 -0.13229 v 0.132292 0.132292 z m 0.52917,-0.264584 h 0.13229 V 67.412052 67.27976 h -0.13229 -0.13229 v 0.132292 0.132291 z m 1.32291,-0.529166 h 0.1323 v -0.132292 -0.132292 h -0.1323 -0.13229 v 0.132292 0.132292 z m 0.52917,-0.264584 h 0.13229 V 66.618302 66.48601 h -0.13229 -0.13229 v 0.132292 0.132291 z m 0.79375,-0.264583 h 0.13229 v -0.132292 -0.132291 h -0.13229 -0.13229 v 0.132291 0.132292 z m 0.52917,-0.264583 h 0.13229 v -0.132292 -0.132292 h -0.13229 -0.13229 v 0.132292 0.132292 z m 1.32291,-0.529167 h 0.1323 v -0.132292 -0.132291 h -0.1323 -0.13229 v 0.132291 0.132292 z m 0.52917,-0.264583 h 0.13229 v -0.132292 -0.132292 h -0.13229 -0.13229 v 0.132292 0.132292 z m 1.32292,-0.529167 h 0.13229 v -0.132292 -0.132291 h -0.13229 -0.13229 v 0.132291 0.132292 z m 0.52916,-0.264583 h 0.1323 v -0.132292 -0.132292 h -0.1323 -0.13229 v 0.132292 0.132292 z m 1.32292,-0.529167 h 0.13229 v -0.132292 -0.132291 h -0.13229 -0.13229 v 0.132291 0.132292 z m 1.32292,-0.529167 h 0.13229 V 63.443302 63.31101 h -0.13229 -0.13229 v 0.132292 0.132291 z m 0.52916,-0.264583 h 0.1323 v -0.132292 -0.132291 h -0.1323 -0.13229 v 0.132291 0.132292 z m 1.32292,-0.529167 h 0.13229 V 62.649552 62.51726 h -0.13229 -0.13229 v 0.132292 0.132291 z m 0.52917,-0.264583 h 0.13229 v -0.132292 -0.132291 h -0.13229 -0.13229 v 0.132291 0.132292 z m 1.32291,-0.529167 h 0.1323 V 61.855802 61.72351 h -0.1323 -0.13229 v 0.132292 0.132291 z m 1.85209,-0.79375 h 0.13229 V 61.062052 60.92976 h -0.13229 -0.13229 v 0.132292 0.132291 z m 1.32291,-0.529166 h 0.1323 v -0.132292 -0.132292 h -0.1323 -0.13229 v 0.132292 0.132292 z m 0.52917,-0.264584 h 0.13229 V 60.268302 60.13601 h -0.13229 -0.13229 v 0.132292 0.132291 z m 1.32292,-0.529166 h 0.13229 v -0.132292 -0.132292 h -0.13229 -0.13229 v 0.132292 0.132292 z m 1.85208,-0.79375 h 0.13229 v -0.132292 -0.132292 h -0.13229 -0.13229 v 0.132292 0.132292 z m 1.32292,-0.529167 h 0.13229 v -0.132292 -0.132291 h -0.13229 -0.13229 v 0.132291 0.132292 z m 0.52916,-0.264583 h 0.1323 v -0.132292 -0.132292 h -0.1323 -0.13229 v 0.132292 0.132292 z m 1.32292,-0.529167 h 0.13229 v -0.132292 -0.132291 h -0.13229 -0.13229 v 0.132291 0.132292 z m 1.85208,-0.79375 h 0.1323 v -0.132292 -0.132291 h -0.1323 -0.13229 v 0.132291 0.132292 z m 1.85209,-0.79375 h 0.13229 v -0.132292 -0.132291 h -0.13229 -0.13229 v 0.132291 0.132292 z m 1.32291,-0.529167 h 0.1323 V 55.505802 55.37351 h -0.1323 -0.13229 v 0.132292 0.132291 z"
         id="path1093" />
      <path
         style="fill:#69df69;stroke-width:0.959234"
         d="m 252.48809,85.800226 -190.235412,2.3e-5 V 46.112921 6.4255934 H 252.48809 442.72351 V 46.112898 85.800202 Z m 4.63021,-0.264216 h 0.13229 v -0.132292 -0.132291 h -0.13229 -0.13229 v 0.132291 0.132292 z m 0.52917,-0.264583 h 0.13229 v -0.132292 -0.132292 h -0.13229 -0.13229 v 0.132292 0.132292 z m 0.79375,-0.264584 h 0.13229 V 84.874552 84.74226 h -0.13229 -0.13229 v 0.132292 0.132291 z m 0.52916,-0.264583 h 0.1323 v -0.132292 -0.132291 h -0.1323 -0.13229 v 0.132291 0.132292 z m 0.66146,-0.264583 h 0.35278 l -0.17639,-0.17639 -0.17639,-0.176387 -0.17639,0.176387 -0.17638,0.17639 z m 0.66146,-0.264584 h 0.13229 V 84.080802 83.94851 h -0.13229 -0.13229 v 0.132292 0.132291 z m 0.52917,-0.264583 h 0.13229 v -0.132292 -0.132291 h -0.13229 -0.13229 v 0.132291 0.132292 z m 0.79375,-0.264583 h 0.13229 v -0.132292 -0.132292 h -0.13229 -0.13229 v 0.132292 0.132292 z m 0.52916,-0.264584 h 0.1323 V 83.287052 83.15476 h -0.1323 -0.13229 v 0.132292 0.132291 z m 0.52917,-0.264583 h 0.13229 v -0.132292 -0.132291 h -0.13229 -0.13229 v 0.132291 0.132292 z m 0.79375,-0.264583 h 0.13229 v -0.132292 -0.132292 h -0.13229 -0.13229 v 0.132292 0.132292 z m 0.52917,-0.264584 h 0.13229 V 82.493302 82.36101 h -0.13229 -0.13229 v 0.132292 0.132291 z m 0.52916,-0.264583 h 0.1323 v -0.132292 -0.132291 h -0.1323 -0.13229 v 0.132291 0.132292 z m 0.79375,-0.264583 h 0.1323 v -0.132292 -0.132292 h -0.1323 -0.13229 v 0.132292 0.132292 z m 0.52917,-0.264584 h 0.13229 V 81.699552 81.56726 h -0.13229 -0.13229 v 0.132292 0.132291 z m 0.79375,-0.264583 h 0.13229 v -0.132292 -0.132291 h -0.13229 -0.13229 v 0.132291 0.132292 z m 0.52917,-0.264583 h 0.13229 v -0.132292 -0.132292 h -0.13229 -0.13229 v 0.132292 0.132292 z m 0.52916,-0.264584 h 0.1323 V 80.905802 80.77351 h -0.1323 -0.13229 v 0.132292 0.132291 z m 0.79375,-0.264583 h 0.1323 v -0.132292 -0.132291 h -0.1323 -0.13229 v 0.132291 0.132292 z m 0.52917,-0.264583 h 0.13229 v -0.132292 -0.132292 h -0.13229 -0.13229 v 0.132292 0.132292 z m 0.52917,-0.264584 h 0.13229 V 80.112052 79.97976 h -0.13229 -0.13229 v 0.132292 0.132291 z m 0.79375,-0.264583 h 0.13229 v -0.132292 -0.132291 h -0.13229 -0.13229 v 0.132291 0.132292 z m 0.52916,-0.264583 h 0.1323 v -0.132292 -0.132292 h -0.1323 -0.13229 v 0.132292 0.132292 z m 0.79375,-0.264584 h 0.1323 V 79.318302 79.18601 h -0.1323 -0.13229 v 0.132292 0.132291 z m 0.52917,-0.264583 h 0.13229 v -0.132292 -0.132291 h -0.13229 -0.13229 v 0.132291 0.132292 z m 0.52917,-0.264583 h 0.13229 v -0.132292 -0.132292 h -0.13229 -0.13229 v 0.132292 0.132292 z m 0.79375,-0.264584 h 0.13229 V 78.524552 78.39226 h -0.13229 -0.13229 v 0.132292 0.132291 z m 0.52916,-0.264583 h 0.1323 v -0.132292 -0.132291 h -0.1323 -0.13229 v 0.132291 0.132292 z m 0.52917,-0.264583 h 0.13229 v -0.132292 -0.132292 h -0.13229 -0.13229 v 0.132292 0.132292 z m 0.79375,-0.264584 h 0.13229 V 77.730802 77.59851 h -0.13229 -0.13229 v 0.132292 0.132291 z m 0.52917,-0.264583 h 0.13229 v -0.132292 -0.132291 h -0.13229 -0.13229 v 0.132291 0.132292 z m 1.32291,-0.529167 h 0.1323 V 76.937052 76.80476 h -0.1323 -0.13229 v 0.132292 0.132291 z m 0.52917,-0.264583 h 0.13229 v -0.132292 -0.132291 h -0.13229 -0.13229 v 0.132291 0.132292 z m 0.79375,-0.264583 h 0.13229 v -0.132292 -0.132292 h -0.13229 -0.13229 v 0.132292 0.132292 z m 0.52917,-0.264584 h 0.13229 V 76.143302 76.01101 h -0.13229 -0.13229 v 0.132292 0.132291 z m 0.52916,-0.264583 h 0.1323 v -0.132292 -0.132291 h -0.1323 -0.13229 v 0.132291 0.132292 z m 0.79375,-0.264583 h 0.1323 v -0.132292 -0.132292 h -0.1323 -0.13229 v 0.132292 0.132292 z m 0.52917,-0.264584 h 0.13229 V 75.349552 75.21726 h -0.13229 -0.13229 v 0.132292 0.132291 z m 1.32292,-0.529166 h 0.13229 v -0.132292 -0.132292 h -0.13229 -0.13229 v 0.132292 0.132292 z m 0.52916,-0.264584 h 0.1323 V 74.555802 74.42351 h -0.1323 -0.13229 v 0.132292 0.132291 z m 1.32292,-0.529166 h 0.13229 v -0.132292 -0.132292 h -0.13229 -0.13229 v 0.132292 0.132292 z m 0.52917,-0.264584 h 0.13229 V 73.762052 73.62976 h -0.13229 -0.13229 v 0.132292 0.132291 z m 0.79375,-0.264583 h 0.13229 v -0.132292 -0.132291 h -0.13229 -0.13229 v 0.132291 0.132292 z m 0.52916,-0.264583 h 0.1323 v -0.132292 -0.132292 h -0.1323 -0.13229 v 0.132292 0.132292 z m 1.32292,-0.529167 h 0.13229 v -0.132292 -0.132291 h -0.13229 -0.13229 v 0.132291 0.132292 z m 0.52917,-0.264583 h 0.13229 v -0.132292 -0.132292 h -0.13229 -0.13229 v 0.132292 0.132292 z m 1.32291,-0.529167 h 0.1323 v -0.132292 -0.132291 h -0.1323 -0.13229 v 0.132291 0.132292 z m 0.52917,-0.264583 h 0.13229 v -0.132292 -0.132292 h -0.13229 -0.13229 v 0.132292 0.132292 z m 0.79375,-0.264584 h 0.13229 V 71.380802 71.24851 h -0.13229 -0.13229 v 0.132292 0.132291 z m 0.52917,-0.264583 h 0.13229 v -0.132292 -0.132291 h -0.13229 -0.13229 v 0.132291 0.132292 z m 0.52916,-0.264583 h 0.1323 v -0.132292 -0.132292 h -0.1323 -0.13229 v 0.132292 0.132292 z m 0.79375,-0.264584 h 0.1323 V 70.587052 70.45476 h -0.1323 -0.13229 v 0.132292 0.132291 z m 0.52917,-0.264583 h 0.13229 v -0.132292 -0.132291 h -0.13229 -0.13229 v 0.132291 0.132292 z m 1.32292,-0.529167 h 0.13229 V 69.793302 69.66101 h -0.13229 -0.13229 v 0.132292 0.132291 z m 0.52916,-0.264583 h 0.1323 v -0.132292 -0.132291 h -0.1323 -0.13229 v 0.132291 0.132292 z m 1.32292,-0.529167 h 0.13229 V 68.999552 68.86726 h -0.13229 -0.13229 v 0.132292 0.132291 z m 0.52917,-0.264583 h 0.13229 v -0.132292 -0.132291 h -0.13229 -0.13229 v 0.132291 0.132292 z m 0.79375,-0.264583 h 0.13229 v -0.132292 -0.132292 h -0.13229 -0.13229 v 0.132292 0.132292 z m 0.52916,-0.264584 h 0.1323 V 68.205802 68.07351 h -0.1323 -0.13229 v 0.132292 0.132291 z m 1.32292,-0.529166 h 0.13229 v -0.132292 -0.132292 h -0.13229 -0.13229 v 0.132292 0.132292 z m 0.52917,-0.264584 h 0.13229 V 67.412052 67.27976 h -0.13229 -0.13229 v 0.132292 0.132291 z m 1.32291,-0.529166 h 0.1323 v -0.132292 -0.132292 h -0.1323 -0.13229 v 0.132292 0.132292 z m 0.52917,-0.264584 h 0.13229 V 66.618302 66.48601 h -0.13229 -0.13229 v 0.132292 0.132291 z m 0.79375,-0.264583 h 0.13229 v -0.132292 -0.132291 h -0.13229 -0.13229 v 0.132291 0.132292 z m 0.52917,-0.264583 h 0.13229 v -0.132292 -0.132292 h -0.13229 -0.13229 v 0.132292 0.132292 z m 1.32291,-0.529167 h 0.1323 v -0.132292 -0.132291 h -0.1323 -0.13229 v 0.132291 0.132292 z m 0.52917,-0.264583 h 0.13229 v -0.132292 -0.132292 h -0.13229 -0.13229 v 0.132292 0.132292 z m 1.32292,-0.529167 h 0.13229 v -0.132292 -0.132291 h -0.13229 -0.13229 v 0.132291 0.132292 z m 0.52916,-0.264583 h 0.1323 v -0.132292 -0.132292 h -0.1323 -0.13229 v 0.132292 0.132292 z m 1.32292,-0.529167 h 0.13229 v -0.132292 -0.132291 h -0.13229 -0.13229 v 0.132291 0.132292 z m 1.32292,-0.529167 h 0.13229 V 63.443302 63.31101 h -0.13229 -0.13229 v 0.132292 0.132291 z m 0.52916,-0.264583 h 0.1323 v -0.132292 -0.132291 h -0.1323 -0.13229 v 0.132291 0.132292 z m 1.32292,-0.529167 h 0.13229 V 62.649552 62.51726 h -0.13229 -0.13229 v 0.132292 0.132291 z m 0.52917,-0.264583 h 0.13229 v -0.132292 -0.132291 h -0.13229 -0.13229 v 0.132291 0.132292 z m 1.32291,-0.529167 h 0.1323 V 61.855802 61.72351 h -0.1323 -0.13229 v 0.132292 0.132291 z m 1.85209,-0.79375 h 0.13229 V 61.062052 60.92976 h -0.13229 -0.13229 v 0.132292 0.132291 z m 1.32291,-0.529166 h 0.1323 v -0.132292 -0.132292 h -0.1323 -0.13229 v 0.132292 0.132292 z m 0.52917,-0.264584 h 0.13229 V 60.268302 60.13601 h -0.13229 -0.13229 v 0.132292 0.132291 z m 1.32292,-0.529166 h 0.13229 v -0.132292 -0.132292 h -0.13229 -0.13229 v 0.132292 0.132292 z m 1.85208,-0.79375 h 0.13229 v -0.132292 -0.132292 h -0.13229 -0.13229 v 0.132292 0.132292 z m 1.32292,-0.529167 h 0.13229 v -0.132292 -0.132291 h -0.13229 -0.13229 v 0.132291 0.132292 z m 0.52916,-0.264583 h 0.1323 v -0.132292 -0.132292 h -0.1323 -0.13229 v 0.132292 0.132292 z m 1.32292,-0.529167 h 0.13229 v -0.132292 -0.132291 h -0.13229 -0.13229 v 0.132291 0.132292 z m 0.52917,-0.264583 h 0.13229 v -0.132292 -0.132292 h -0.13229 -0.13229 v 0.132292 0.132292 z m 1.32291,-0.529167 h 0.1323 v -0.132292 -0.132291 h -0.1323 -0.13229 v 0.132291 0.132292 z m 1.85209,-0.79375 h 0.13229 v -0.132292 -0.132291 h -0.13229 -0.13229 v 0.132291 0.132292 z m 1.32291,-0.529167 h 0.1323 V 55.505802 55.37351 h -0.1323 -0.13229 v 0.132292 0.132291 z m 0.52917,-0.264583 h 0.13229 v -0.132292 -0.132291 h -0.13229 -0.13229 v 0.132291 0.132292 z"
         id="path1091" />
      <path
         style="fill:#5cdd5c;stroke-width:0.959234"
         d="m 252.48809,85.800043 -190.235412,3.4e-5 V 46.112834 6.4255934 H 252.48809 442.72351 V 46.1128 85.800009 Z m 4.63021,-0.264033 h 0.13229 v -0.132292 -0.132291 h -0.13229 -0.13229 v 0.132291 0.132292 z m 0.52917,-0.264583 h 0.13229 v -0.132292 -0.132292 h -0.13229 -0.13229 v 0.132292 0.132292 z m 0.66146,-0.264584 h 0.35277 l -0.17638,-0.176389 -0.17639,-0.176387 -0.17639,0.176387 -0.17639,0.176389 z m 0.66145,-0.264583 h 0.1323 v -0.132292 -0.132291 h -0.1323 -0.13229 v 0.132291 0.132292 z m 0.52917,-0.272687 h 0.26458 l 0.39688,-0.25648 0.39687,-0.256479 h -0.26458 -0.26458 l -0.39688,0.256479 -0.39687,0.25648 z m 1.32292,-0.521063 h 0.13229 v -0.132292 -0.132291 h -0.13229 -0.13229 v 0.132291 0.132292 z m 0.66146,-0.264583 h 0.35277 l -0.17638,-0.17639 -0.17639,-0.176387 -0.17639,0.176387 -0.17639,0.17639 z m 0.66145,-0.264584 h 0.1323 V 83.287052 83.15476 h -0.1323 -0.13229 v 0.132292 0.132291 z m 0.52917,-0.264583 h 0.13229 v -0.132292 -0.132291 h -0.13229 -0.13229 v 0.132291 0.132292 z m 0.66146,-0.264583 h 0.35278 l -0.17639,-0.17639 -0.17639,-0.176387 -0.17639,0.176387 -0.17639,0.17639 z m 0.66146,-0.264584 h 0.13229 V 82.493302 82.36101 h -0.13229 -0.13229 v 0.132292 0.132291 z m 0.52916,-0.264583 h 0.1323 v -0.132292 -0.132291 h -0.1323 -0.13229 v 0.132291 0.132292 z m 0.66146,-0.264583 h 0.35278 l -0.17639,-0.17639 -0.17639,-0.176387 -0.17639,0.176387 -0.17638,0.17639 z m 0.66146,-0.264584 h 0.13229 V 81.699552 81.56726 h -0.13229 -0.13229 v 0.132292 0.132291 z m 0.66146,-0.264583 h 0.35278 l -0.17639,-0.17639 -0.17639,-0.176387 -0.17639,0.176387 -0.17639,0.17639 z m 0.66146,-0.264583 h 0.13229 v -0.132292 -0.132292 h -0.13229 -0.13229 v 0.132292 0.132292 z m 0.52916,-0.264584 h 0.1323 V 80.905802 80.77351 h -0.1323 -0.13229 v 0.132292 0.132291 z m 0.66146,-0.264583 h 0.35278 l -0.17639,-0.17639 -0.17639,-0.176387 -0.17639,0.176387 -0.17638,0.17639 z m 0.66146,-0.264583 h 0.13229 v -0.132292 -0.132292 h -0.13229 -0.13229 v 0.132292 0.132292 z m 0.52917,-0.264584 h 0.13229 V 80.112052 79.97976 h -0.13229 -0.13229 v 0.132292 0.132291 z m 0.66146,-0.264583 h 0.35277 l -0.17638,-0.17639 -0.17639,-0.176387 -0.17639,0.176387 -0.17639,0.17639 z m 0.66145,-0.264583 h 0.1323 v -0.132292 -0.132292 h -0.1323 -0.13229 v 0.132292 0.132292 z m 0.66146,-0.264584 h 0.35278 l -0.17639,-0.176389 -0.17639,-0.176387 -0.17639,0.176387 -0.17638,0.176389 z m 0.66146,-0.264583 h 0.13229 v -0.132292 -0.132291 h -0.13229 -0.13229 v 0.132291 0.132292 z m 0.52917,-0.264583 h 0.13229 v -0.132292 -0.132292 h -0.13229 -0.13229 v 0.132292 0.132292 z m 0.66146,-0.264584 h 0.35277 l -0.17638,-0.176389 -0.17639,-0.176387 -0.17639,0.176387 -0.17639,0.176389 z m 0.66145,-0.264583 h 0.1323 v -0.132292 -0.132291 h -0.1323 -0.13229 v 0.132291 0.132292 z m 0.52917,-0.264583 h 0.13229 v -0.132292 -0.132292 h -0.13229 -0.13229 v 0.132292 0.132292 z m 0.66146,-0.264584 h 0.35278 l -0.17639,-0.176389 -0.17639,-0.176387 -0.17639,0.176387 -0.17639,0.176389 z m 0.66146,-0.264583 h 0.13229 v -0.132292 -0.132291 h -0.13229 -0.13229 v 0.132291 0.132292 z m 0.52916,-0.264583 h 0.1323 v -0.132292 -0.132292 h -0.1323 -0.13229 v 0.132292 0.132292 z m 0.79375,-0.264584 h 0.1323 V 76.937052 76.80476 h -0.1323 -0.13229 v 0.132292 0.132291 z m 0.52917,-0.264583 h 0.13229 v -0.132292 -0.132291 h -0.13229 -0.13229 v 0.132291 0.132292 z m 0.66146,-0.264583 h 0.35278 l -0.17639,-0.17639 -0.17639,-0.176387 -0.17639,0.176387 -0.17639,0.17639 z m 0.66146,-0.264584 h 0.13229 V 76.143302 76.01101 h -0.13229 -0.13229 v 0.132292 0.132291 z m 0.52916,-0.264583 h 0.1323 v -0.132292 -0.132291 h -0.1323 -0.13229 v 0.132291 0.132292 z m 0.66146,-0.264583 h 0.35278 l -0.17639,-0.17639 -0.17639,-0.176387 -0.17639,0.176387 -0.17638,0.17639 z m 0.66146,-0.264584 h 0.13229 V 75.349552 75.21726 h -0.13229 -0.13229 v 0.132292 0.132291 z m 0.52917,-0.264583 h 0.13229 v -0.132292 -0.132291 h -0.13229 -0.13229 v 0.132291 0.132292 z m 0.66146,-0.264583 h 0.35277 l -0.17638,-0.17639 -0.17639,-0.176387 -0.17639,0.176387 -0.17639,0.17639 z m 0.66145,-0.264584 h 0.1323 V 74.555802 74.42351 h -0.1323 -0.13229 v 0.132292 0.132291 z m 0.52917,-0.264583 h 0.13229 v -0.132292 -0.132291 h -0.13229 -0.13229 v 0.132291 0.132292 z m 0.79375,-0.264583 h 0.13229 v -0.132292 -0.132292 h -0.13229 -0.13229 v 0.132292 0.132292 z m 0.52917,-0.264584 h 0.13229 V 73.762052 73.62976 h -0.13229 -0.13229 v 0.132292 0.132291 z m 0.66146,-0.264583 h 0.35277 l -0.17638,-0.17639 -0.17639,-0.176387 -0.17639,0.176387 -0.17639,0.17639 z m 0.66145,-0.264583 h 0.1323 v -0.132292 -0.132292 h -0.1323 -0.13229 v 0.132292 0.132292 z m 0.52917,-0.264584 h 0.13229 V 72.968302 72.83601 h -0.13229 -0.13229 v 0.132292 0.132291 z m 0.66146,-0.264583 h 0.35278 l -0.17639,-0.17639 -0.17639,-0.176387 -0.17639,0.176387 -0.17639,0.17639 z m 0.66146,-0.264583 h 0.13229 v -0.132292 -0.132292 h -0.13229 -0.13229 v 0.132292 0.132292 z m 0.52916,-0.264584 h 0.1323 V 72.174552 72.04226 h -0.1323 -0.13229 v 0.132292 0.132291 z m 0.79375,-0.264583 h 0.1323 v -0.132292 -0.132291 h -0.1323 -0.13229 v 0.132291 0.132292 z m 0.52917,-0.264583 h 0.13229 v -0.132292 -0.132292 h -0.13229 -0.13229 v 0.132292 0.132292 z m 0.66146,-0.264584 h 0.35278 l -0.17639,-0.176389 -0.17639,-0.176387 -0.17639,0.176387 -0.17639,0.176389 z m 0.66146,-0.264583 h 0.13229 v -0.132292 -0.132291 h -0.13229 -0.13229 v 0.132291 0.132292 z m 0.52916,-0.264583 h 0.1323 v -0.132292 -0.132292 h -0.1323 -0.13229 v 0.132292 0.132292 z m 0.66146,-0.264584 h 0.35278 l -0.17639,-0.176389 -0.17639,-0.176387 -0.17639,0.176387 -0.17638,0.176389 z m 0.66146,-0.264583 h 0.13229 v -0.132292 -0.132291 h -0.13229 -0.13229 v 0.132291 0.132292 z m 0.52917,-0.264583 h 0.13229 v -0.132292 -0.132292 h -0.13229 -0.13229 v 0.132292 0.132292 z m 0.79375,-0.264584 h 0.13229 V 69.793302 69.66101 h -0.13229 -0.13229 v 0.132292 0.132291 z m 0.52916,-0.264583 h 0.1323 v -0.132292 -0.132291 h -0.1323 -0.13229 v 0.132291 0.132292 z m 0.52917,-0.264583 h 0.13229 v -0.132292 -0.132292 h -0.13229 -0.13229 v 0.132292 0.132292 z m 0.79375,-0.264584 h 0.13229 V 68.999552 68.86726 h -0.13229 -0.13229 v 0.132292 0.132291 z m 0.52917,-0.264583 h 0.13229 v -0.132292 -0.132291 h -0.13229 -0.13229 v 0.132291 0.132292 z m 0.66146,-0.264583 h 0.35277 l -0.17638,-0.17639 -0.17639,-0.176387 -0.17639,0.176387 -0.17639,0.17639 z m 0.66145,-0.264584 h 0.1323 V 68.205802 68.07351 h -0.1323 -0.13229 v 0.132292 0.132291 z m 0.52917,-0.264583 h 0.13229 v -0.132292 -0.132291 h -0.13229 -0.13229 v 0.132291 0.132292 z m 0.79375,-0.264583 h 0.13229 v -0.132292 -0.132292 h -0.13229 -0.13229 v 0.132292 0.132292 z m 0.52917,-0.264584 h 0.13229 V 67.412052 67.27976 h -0.13229 -0.13229 v 0.132292 0.132291 z m 0.52916,-0.264583 h 0.1323 v -0.132292 -0.132291 h -0.1323 -0.13229 v 0.132291 0.132292 z m 0.79375,-0.264583 h 0.1323 v -0.132292 -0.132292 h -0.1323 -0.13229 v 0.132292 0.132292 z m 0.52917,-0.264584 h 0.13229 V 66.618302 66.48601 h -0.13229 -0.13229 v 0.132292 0.132291 z m 0.66146,-0.264583 h 0.35278 l -0.17639,-0.17639 -0.17639,-0.176387 -0.17639,0.176387 -0.17639,0.17639 z m 0.66146,-0.264583 h 0.13229 v -0.132292 -0.132292 h -0.13229 -0.13229 v 0.132292 0.132292 z m 0.52916,-0.264584 h 0.1323 V 65.824552 65.69226 h -0.1323 -0.13229 v 0.132292 0.132291 z m 0.79375,-0.264583 h 0.1323 v -0.132292 -0.132291 h -0.1323 -0.13229 v 0.132291 0.132292 z m 0.52917,-0.264583 h 0.13229 v -0.132292 -0.132292 h -0.13229 -0.13229 v 0.132292 0.132292 z m 0.52917,-0.264584 h 0.13229 V 65.030802 64.89851 h -0.13229 -0.13229 v 0.132292 0.132291 z m 0.79375,-0.264583 h 0.13229 v -0.132292 -0.132291 h -0.13229 -0.13229 v 0.132291 0.132292 z m 0.52916,-0.264583 h 0.1323 v -0.132292 -0.132292 h -0.1323 -0.13229 v 0.132292 0.132292 z m 0.52917,-0.264584 h 0.13229 V 64.237052 64.10476 h -0.13229 -0.13229 v 0.132292 0.132291 z m 0.79375,-0.264583 h 0.13229 v -0.132292 -0.132291 h -0.13229 -0.13229 v 0.132291 0.132292 z m 0.52917,-0.264583 h 0.13229 v -0.132292 -0.132292 h -0.13229 -0.13229 v 0.132292 0.132292 z m 0.66146,-0.264584 h 0.35277 l -0.17638,-0.176389 -0.17639,-0.176387 -0.17639,0.176387 -0.17639,0.176389 z m 0.66145,-0.264583 h 0.1323 v -0.132292 -0.132291 h -0.1323 -0.13229 v 0.132291 0.132292 z m 0.52917,-0.264583 h 0.13229 v -0.132292 -0.132292 h -0.13229 -0.13229 v 0.132292 0.132292 z m 0.79375,-0.264584 h 0.13229 V 62.649552 62.51726 h -0.13229 -0.13229 v 0.132292 0.132291 z m 0.52917,-0.264583 h 0.13229 v -0.132292 -0.132291 h -0.13229 -0.13229 v 0.132291 0.132292 z m 0.52916,-0.264583 h 0.1323 v -0.132292 -0.132292 h -0.1323 -0.13229 v 0.132292 0.132292 z m 0.79375,-0.264584 h 0.1323 V 61.855802 61.72351 h -0.1323 -0.13229 v 0.132292 0.132291 z m 0.52917,-0.264583 h 0.13229 v -0.132292 -0.132291 h -0.13229 -0.13229 v 0.132291 0.132292 z m 0.52917,-0.264583 h 0.13229 v -0.132292 -0.132292 h -0.13229 -0.13229 v 0.132292 0.132292 z m 0.79375,-0.264584 h 0.13229 V 61.062052 60.92976 h -0.13229 -0.13229 v 0.132292 0.132291 z m 0.52916,-0.264583 h 0.1323 v -0.132292 -0.132291 h -0.1323 -0.13229 v 0.132291 0.132292 z m 0.79375,-0.264583 h 0.1323 v -0.132292 -0.132292 h -0.1323 -0.13229 v 0.132292 0.132292 z m 0.52917,-0.264584 h 0.13229 V 60.268302 60.13601 h -0.13229 -0.13229 v 0.132292 0.132291 z m 0.52917,-0.264583 h 0.13229 v -0.132292 -0.132291 h -0.13229 -0.13229 v 0.132291 0.132292 z m 0.79375,-0.264583 h 0.13229 v -0.132292 -0.132292 h -0.13229 -0.13229 v 0.132292 0.132292 z m 0.52916,-0.264584 h 0.1323 V 59.474552 59.34226 h -0.1323 -0.13229 v 0.132292 0.132291 z m 0.52917,-0.264583 h 0.13229 v -0.132292 -0.132291 h -0.13229 -0.13229 v 0.132291 0.132292 z m 0.79375,-0.264583 h 0.13229 v -0.132292 -0.132292 h -0.13229 -0.13229 v 0.132292 0.132292 z m 0.52917,-0.264584 h 0.13229 V 58.680802 58.54851 h -0.13229 -0.13229 v 0.132292 0.132291 z m 0.79375,-0.264583 h 0.13229 v -0.132292 -0.132291 h -0.13229 -0.13229 v 0.132291 0.132292 z m 0.52916,-0.264583 h 0.1323 v -0.132292 -0.132292 h -0.1323 -0.13229 v 0.132292 0.132292 z m 0.52917,-0.264584 h 0.13229 V 57.887052 57.75476 h -0.13229 -0.13229 v 0.132292 0.132291 z m 0.79375,-0.264583 h 0.13229 v -0.132292 -0.132291 h -0.13229 -0.13229 v 0.132291 0.132292 z m 0.52917,-0.264583 h 0.13229 v -0.132292 -0.132292 h -0.13229 -0.13229 v 0.132292 0.132292 z m 0.52916,-0.264584 h 0.1323 V 57.093302 56.96101 h -0.1323 -0.13229 v 0.132292 0.132291 z m 0.79375,-0.264583 h 0.1323 v -0.132292 -0.132291 h -0.1323 -0.13229 v 0.132291 0.132292 z m 0.52917,-0.264583 h 0.13229 v -0.132292 -0.132292 h -0.13229 -0.13229 v 0.132292 0.132292 z m 1.32292,-0.529167 h 0.13229 v -0.132292 -0.132291 h -0.13229 -0.13229 v 0.132291 0.132292 z m 0.52916,-0.264583 h 0.1323 v -0.132292 -0.132292 h -0.1323 -0.13229 v 0.132292 0.132292 z m 0.79375,-0.264584 h 0.1323 V 55.505802 55.37351 h -0.1323 -0.13229 v 0.132292 0.132291 z m 0.52917,-0.264583 h 0.13229 v -0.132292 -0.132291 h -0.13229 -0.13229 v 0.132291 0.132292 z m 0.52917,-0.264583 h 0.13229 v -0.132292 -0.132292 h -0.13229 -0.13229 v 0.132292 0.132292 z"
         id="path1089" />
      <path
         style="fill:#50da50;stroke-width:0.959234"
         d="m 252.48809,85.800043 -190.235412,3.4e-5 V 46.112834 6.4255934 H 252.48809 442.72351 V 46.1128 85.800009 Z m 4.63021,-0.264033 h 0.13229 v -0.132292 -0.132291 h -0.13229 -0.13229 v 0.132291 0.132292 z m 0.52917,-0.264583 h 0.13229 v -0.132292 -0.132292 h -0.13229 -0.13229 v 0.132292 0.132292 z m 0.66146,-0.264584 h 0.35277 l -0.17638,-0.176389 -0.17639,-0.176387 -0.17639,0.176387 -0.17639,0.176389 z m 0.66145,-0.264583 h 0.1323 v -0.132292 -0.132291 h -0.1323 -0.13229 v 0.132291 0.132292 z m 0.52917,-0.272687 h 0.26458 l 0.39688,-0.25648 0.39687,-0.256479 h -0.26458 -0.26458 l -0.39688,0.256479 -0.39687,0.25648 z m 1.32292,-0.521063 h 0.13229 v -0.132292 -0.132291 h -0.13229 -0.13229 v 0.132291 0.132292 z m 0.66146,-0.264583 h 0.35277 l -0.17638,-0.17639 -0.17639,-0.176387 -0.17639,0.176387 -0.17639,0.17639 z m 0.66145,-0.264584 h 0.1323 V 83.287052 83.15476 h -0.1323 -0.13229 v 0.132292 0.132291 z m 0.52917,-0.264583 h 0.13229 v -0.132292 -0.132291 h -0.13229 -0.13229 v 0.132291 0.132292 z m 0.66146,-0.264583 h 0.35278 l -0.17639,-0.17639 -0.17639,-0.176387 -0.17639,0.176387 -0.17639,0.17639 z m 0.66146,-0.264584 h 0.13229 V 82.493302 82.36101 h -0.13229 -0.13229 v 0.132292 0.132291 z m 0.52916,-0.264583 h 0.1323 v -0.132292 -0.132291 h -0.1323 -0.13229 v 0.132291 0.132292 z m 0.66146,-0.264583 h 0.35278 l -0.17639,-0.17639 -0.17639,-0.176387 -0.17639,0.176387 -0.17638,0.17639 z m 0.66146,-0.264584 h 0.13229 V 81.699552 81.56726 h -0.13229 -0.13229 v 0.132292 0.132291 z m 0.52917,-0.272687 h 0.26458 l 0.39688,-0.256479 0.39687,-0.256479 h -0.26458 -0.26459 l -0.39687,0.256479 -0.39688,0.256479 z m 1.32291,-0.521063 h 0.1323 V 80.905802 80.77351 h -0.1323 -0.13229 v 0.132292 0.132291 z m 0.66146,-0.264583 h 0.35278 l -0.17639,-0.17639 -0.17639,-0.176387 -0.17639,0.176387 -0.17638,0.17639 z m 0.66146,-0.264583 h 0.13229 v -0.132292 -0.132292 h -0.13229 -0.13229 v 0.132292 0.132292 z m 0.52917,-0.264584 h 0.13229 V 80.112052 79.97976 h -0.13229 -0.13229 v 0.132292 0.132291 z m 0.66146,-0.264583 h 0.35277 l -0.17638,-0.17639 -0.17639,-0.176387 -0.17639,0.176387 -0.17639,0.17639 z m 0.66145,-0.264583 h 0.1323 v -0.132292 -0.132292 h -0.1323 -0.13229 v 0.132292 0.132292 z m 0.52917,-0.272688 h 0.26458 l 0.39688,-0.256479 0.39687,-0.256479 h -0.26458 -0.26458 l -0.39688,0.256479 -0.39687,0.256479 z m 1.32292,-0.521062 h 0.13229 v -0.132292 -0.132292 h -0.13229 -0.13229 v 0.132292 0.132292 z m 0.66146,-0.264584 h 0.35277 l -0.17638,-0.176389 -0.17639,-0.176387 -0.17639,0.176387 -0.17639,0.176389 z m 0.66145,-0.264583 h 0.1323 v -0.132292 -0.132291 h -0.1323 -0.13229 v 0.132291 0.132292 z m 0.52917,-0.264583 h 0.13229 v -0.132292 -0.132292 h -0.13229 -0.13229 v 0.132292 0.132292 z m 0.66146,-0.264584 h 0.35278 l -0.17639,-0.176389 -0.17639,-0.176387 -0.17639,0.176387 -0.17639,0.176389 z m 0.66146,-0.264583 h 0.13229 v -0.132292 -0.132291 h -0.13229 -0.13229 v 0.132291 0.132292 z m 0.52916,-0.264583 h 0.1323 v -0.132292 -0.132292 h -0.1323 -0.13229 v 0.132292 0.132292 z m 0.66146,-0.264584 h 0.35278 l -0.17639,-0.176389 -0.17639,-0.176387 -0.17639,0.176387 -0.17638,0.176389 z m 0.66146,-0.264583 h 0.13229 v -0.132292 -0.132291 h -0.13229 -0.13229 v 0.132291 0.132292 z m 0.66146,-0.264583 h 0.35278 l -0.17639,-0.17639 -0.17639,-0.176387 -0.17639,0.176387 -0.17639,0.17639 z m 0.66146,-0.264584 h 0.13229 V 76.143302 76.01101 h -0.13229 -0.13229 v 0.132292 0.132291 z m 0.52916,-0.264583 h 0.1323 v -0.132292 -0.132291 h -0.1323 -0.13229 v 0.132291 0.132292 z m 0.66146,-0.264583 h 0.35278 l -0.17639,-0.17639 -0.17639,-0.176387 -0.17639,0.176387 -0.17638,0.17639 z m 0.66146,-0.264584 h 0.13229 V 75.349552 75.21726 h -0.13229 -0.13229 v 0.132292 0.132291 z m 0.52917,-0.264583 h 0.13229 v -0.132292 -0.132291 h -0.13229 -0.13229 v 0.132291 0.132292 z m 0.66146,-0.264583 h 0.35277 l -0.17638,-0.17639 -0.17639,-0.176387 -0.17639,0.176387 -0.17639,0.17639 z m 0.66145,-0.264584 h 0.1323 V 74.555802 74.42351 h -0.1323 -0.13229 v 0.132292 0.132291 z m 0.52917,-0.264583 h 0.13229 v -0.132292 -0.132291 h -0.13229 -0.13229 v 0.132291 0.132292 z m 0.79375,-0.264583 h 0.13229 v -0.132292 -0.132292 h -0.13229 -0.13229 v 0.132292 0.132292 z m 0.52917,-0.264584 h 0.13229 V 73.762052 73.62976 h -0.13229 -0.13229 v 0.132292 0.132291 z m 0.66146,-0.264583 h 0.35277 l -0.17638,-0.17639 -0.17639,-0.176387 -0.17639,0.176387 -0.17639,0.17639 z m 0.66145,-0.264583 h 0.1323 v -0.132292 -0.132292 h -0.1323 -0.13229 v 0.132292 0.132292 z m 0.52917,-0.264584 h 0.13229 V 72.968302 72.83601 h -0.13229 -0.13229 v 0.132292 0.132291 z m 0.66146,-0.264583 h 0.35278 l -0.17639,-0.17639 -0.17639,-0.176387 -0.17639,0.176387 -0.17639,0.17639 z m 0.66146,-0.264583 h 0.13229 v -0.132292 -0.132292 h -0.13229 -0.13229 v 0.132292 0.132292 z m 0.52916,-0.264584 h 0.1323 V 72.174552 72.04226 h -0.1323 -0.13229 v 0.132292 0.132291 z m 0.79375,-0.264583 h 0.1323 v -0.132292 -0.132291 h -0.1323 -0.13229 v 0.132291 0.132292 z m 0.52917,-0.264583 h 0.13229 v -0.132292 -0.132292 h -0.13229 -0.13229 v 0.132292 0.132292 z m 0.66146,-0.264584 h 0.35278 l -0.17639,-0.176389 -0.17639,-0.176387 -0.17639,0.176387 -0.17639,0.176389 z m 0.66146,-0.264583 h 0.13229 v -0.132292 -0.132291 h -0.13229 -0.13229 v 0.132291 0.132292 z m 0.52916,-0.264583 h 0.1323 v -0.132292 -0.132292 h -0.1323 -0.13229 v 0.132292 0.132292 z m 0.66146,-0.264584 h 0.35278 l -0.17639,-0.176389 -0.17639,-0.176387 -0.17639,0.176387 -0.17638,0.176389 z m 0.66146,-0.264583 h 0.13229 v -0.132292 -0.132291 h -0.13229 -0.13229 v 0.132291 0.132292 z m 0.52917,-0.264583 h 0.13229 v -0.132292 -0.132292 h -0.13229 -0.13229 v 0.132292 0.132292 z m 0.79375,-0.264584 h 0.13229 V 69.793302 69.66101 h -0.13229 -0.13229 v 0.132292 0.132291 z m 0.52916,-0.264583 h 0.1323 v -0.132292 -0.132291 h -0.1323 -0.13229 v 0.132291 0.132292 z m 0.52917,-0.264583 h 0.13229 v -0.132292 -0.132292 h -0.13229 -0.13229 v 0.132292 0.132292 z m 0.79375,-0.264584 h 0.13229 V 68.999552 68.86726 h -0.13229 -0.13229 v 0.132292 0.132291 z m 0.52917,-0.264583 h 0.13229 v -0.132292 -0.132291 h -0.13229 -0.13229 v 0.132291 0.132292 z m 0.66146,-0.264583 h 0.35277 l -0.17638,-0.17639 -0.17639,-0.176387 -0.17639,0.176387 -0.17639,0.17639 z m 0.66145,-0.264584 h 0.1323 V 68.205802 68.07351 h -0.1323 -0.13229 v 0.132292 0.132291 z m 0.52917,-0.264583 h 0.13229 v -0.132292 -0.132291 h -0.13229 -0.13229 v 0.132291 0.132292 z m 0.66146,-0.264583 h 0.35278 l -0.17639,-0.17639 -0.17639,-0.176387 -0.17639,0.176387 -0.17639,0.17639 z m 0.66146,-0.264584 h 0.13229 V 67.412052 67.27976 h -0.13229 -0.13229 v 0.132292 0.132291 z m 0.52916,-0.264583 h 0.1323 v -0.132292 -0.132291 h -0.1323 -0.13229 v 0.132291 0.132292 z m 0.79375,-0.264583 h 0.1323 v -0.132292 -0.132292 h -0.1323 -0.13229 v 0.132292 0.132292 z m 0.52917,-0.264584 h 0.13229 V 66.618302 66.48601 h -0.13229 -0.13229 v 0.132292 0.132291 z m 0.66146,-0.264583 h 0.35278 l -0.17639,-0.17639 -0.17639,-0.176387 -0.17639,0.176387 -0.17639,0.17639 z m 0.66146,-0.264583 h 0.13229 v -0.132292 -0.132292 h -0.13229 -0.13229 v 0.132292 0.132292 z m 0.52916,-0.264584 h 0.1323 V 65.824552 65.69226 h -0.1323 -0.13229 v 0.132292 0.132291 z m 0.66146,-0.264583 h 0.35278 l -0.17639,-0.17639 -0.17639,-0.176387 -0.17639,0.176387 -0.17638,0.17639 z m 0.66146,-0.264583 h 0.13229 v -0.132292 -0.132292 h -0.13229 -0.13229 v 0.132292 0.132292 z m 0.52917,-0.264584 h 0.13229 V 65.030802 64.89851 h -0.13229 -0.13229 v 0.132292 0.132291 z m 0.79375,-0.264583 h 0.13229 v -0.132292 -0.132291 h -0.13229 -0.13229 v 0.132291 0.132292 z m 0.52916,-0.264583 h 0.1323 v -0.132292 -0.132292 h -0.1323 -0.13229 v 0.132292 0.132292 z m 0.52917,-0.264584 h 0.13229 V 64.237052 64.10476 h -0.13229 -0.13229 v 0.132292 0.132291 z m 0.79375,-0.264583 h 0.13229 v -0.132292 -0.132291 h -0.13229 -0.13229 v 0.132291 0.132292 z m 0.52917,-0.264583 h 0.13229 v -0.132292 -0.132292 h -0.13229 -0.13229 v 0.132292 0.132292 z m 0.66146,-0.264584 h 0.35277 l -0.17638,-0.176389 -0.17639,-0.176387 -0.17639,0.176387 -0.17639,0.176389 z m 0.66145,-0.264583 h 0.1323 v -0.132292 -0.132291 h -0.1323 -0.13229 v 0.132291 0.132292 z m 0.52917,-0.264583 h 0.13229 v -0.132292 -0.132292 h -0.13229 -0.13229 v 0.132292 0.132292 z m 0.79375,-0.264584 h 0.13229 V 62.649552 62.51726 h -0.13229 -0.13229 v 0.132292 0.132291 z m 0.52917,-0.264583 h 0.13229 v -0.132292 -0.132291 h -0.13229 -0.13229 v 0.132291 0.132292 z m 0.52916,-0.264583 h 0.1323 v -0.132292 -0.132292 h -0.1323 -0.13229 v 0.132292 0.132292 z m 0.79375,-0.264584 h 0.1323 V 61.855802 61.72351 h -0.1323 -0.13229 v 0.132292 0.132291 z m 0.52917,-0.264583 h 0.13229 v -0.132292 -0.132291 h -0.13229 -0.13229 v 0.132291 0.132292 z m 0.52917,-0.264583 h 0.13229 v -0.132292 -0.132292 h -0.13229 -0.13229 v 0.132292 0.132292 z m 0.79375,-0.264584 h 0.13229 V 61.062052 60.92976 h -0.13229 -0.13229 v 0.132292 0.132291 z m 0.52916,-0.264583 h 0.1323 v -0.132292 -0.132291 h -0.1323 -0.13229 v 0.132291 0.132292 z m 0.79375,-0.264583 h 0.1323 v -0.132292 -0.132292 h -0.1323 -0.13229 v 0.132292 0.132292 z m 0.52917,-0.264584 h 0.13229 V 60.268302 60.13601 h -0.13229 -0.13229 v 0.132292 0.132291 z m 0.52917,-0.264583 h 0.13229 v -0.132292 -0.132291 h -0.13229 -0.13229 v 0.132291 0.132292 z m 0.79375,-0.264583 h 0.13229 v -0.132292 -0.132292 h -0.13229 -0.13229 v 0.132292 0.132292 z m 0.52916,-0.264584 h 0.1323 V 59.474552 59.34226 h -0.1323 -0.13229 v 0.132292 0.132291 z m 0.52917,-0.264583 h 0.13229 v -0.132292 -0.132291 h -0.13229 -0.13229 v 0.132291 0.132292 z m 0.79375,-0.264583 h 0.13229 v -0.132292 -0.132292 h -0.13229 -0.13229 v 0.132292 0.132292 z m 0.52917,-0.264584 h 0.13229 V 58.680802 58.54851 h -0.13229 -0.13229 v 0.132292 0.132291 z m 0.79375,-0.264583 h 0.13229 v -0.132292 -0.132291 h -0.13229 -0.13229 v 0.132291 0.132292 z m 0.52916,-0.264583 h 0.1323 v -0.132292 -0.132292 h -0.1323 -0.13229 v 0.132292 0.132292 z m 0.52917,-0.264584 h 0.13229 V 57.887052 57.75476 h -0.13229 -0.13229 v 0.132292 0.132291 z m 0.79375,-0.264583 h 0.13229 v -0.132292 -0.132291 h -0.13229 -0.13229 v 0.132291 0.132292 z m 0.52917,-0.264583 h 0.13229 v -0.132292 -0.132292 h -0.13229 -0.13229 v 0.132292 0.132292 z m 0.52916,-0.264584 h 0.1323 V 57.093302 56.96101 h -0.1323 -0.13229 v 0.132292 0.132291 z m 0.79375,-0.264583 h 0.1323 v -0.132292 -0.132291 h -0.1323 -0.13229 v 0.132291 0.132292 z m 0.52917,-0.264583 h 0.13229 v -0.132292 -0.132292 h -0.13229 -0.13229 v 0.132292 0.132292 z m 1.32292,-0.529167 h 0.13229 v -0.132292 -0.132291 h -0.13229 -0.13229 v 0.132291 0.132292 z m 0.52916,-0.264583 h 0.1323 v -0.132292 -0.132292 h -0.1323 -0.13229 v 0.132292 0.132292 z m 0.79375,-0.264584 h 0.1323 V 55.505802 55.37351 h -0.1323 -0.13229 v 0.132292 0.132291 z m 0.52917,-0.264583 h 0.13229 v -0.132292 -0.132291 h -0.13229 -0.13229 v 0.132291 0.132292 z m 0.52917,-0.264583 h 0.13229 v -0.132292 -0.132292 h -0.13229 -0.13229 v 0.132292 0.132292 z"
         id="path1087" />
      <path
         style="fill:#43d943;stroke-width:0.959234"
         d="m 252.48809,85.800043 -190.235412,3.4e-5 V 46.112834 6.4255934 H 252.48809 442.72351 V 46.1128 85.800009 Z m 4.63021,-0.264033 h 0.13229 v -0.132292 -0.132291 h -0.13229 -0.13229 v 0.132291 0.132292 z m 0.52917,-0.264583 h 0.13229 v -0.132292 -0.132292 h -0.13229 -0.13229 v 0.132292 0.132292 z m 0.66146,-0.264584 h 0.35277 l -0.17638,-0.176389 -0.17639,-0.176387 -0.17639,0.176387 -0.17639,0.176389 z m 0.66145,-0.264583 h 0.1323 v -0.132292 -0.132291 h -0.1323 -0.13229 v 0.132291 0.132292 z m 0.52917,-0.272687 h 0.26458 l 0.39688,-0.25648 0.39687,-0.256479 h -0.26458 -0.26458 l -0.39688,0.256479 -0.39687,0.25648 z m 1.32292,-0.521063 h 0.13229 v -0.132292 -0.132291 h -0.13229 -0.13229 v 0.132291 0.132292 z m 0.52916,-0.272687 h 0.26459 l 0.39687,-0.25648 0.39688,-0.256479 h -0.26459 -0.26458 l -0.39687,0.256479 -0.39688,0.25648 z m 1.32292,-0.521063 h 0.13229 v -0.132292 -0.132291 h -0.13229 -0.13229 v 0.132291 0.132292 z m 0.66146,-0.264583 h 0.35278 l -0.17639,-0.17639 -0.17639,-0.176387 -0.17639,0.176387 -0.17639,0.17639 z m 0.66146,-0.264584 h 0.13229 V 82.493302 82.36101 h -0.13229 -0.13229 v 0.132292 0.132291 z m 0.52916,-0.264583 h 0.1323 v -0.132292 -0.132291 h -0.1323 -0.13229 v 0.132291 0.132292 z m 0.66146,-0.264583 h 0.35278 l -0.17639,-0.17639 -0.17639,-0.176387 -0.17639,0.176387 -0.17638,0.17639 z m 0.66146,-0.264584 h 0.13229 V 81.699552 81.56726 h -0.13229 -0.13229 v 0.132292 0.132291 z m 0.52917,-0.272687 h 0.26458 l 0.39688,-0.256479 0.39687,-0.256479 h -0.26458 -0.26459 l -0.39687,0.256479 -0.39688,0.256479 z m 1.32291,-0.521063 h 0.1323 V 80.905802 80.77351 h -0.1323 -0.13229 v 0.132292 0.132291 z m 0.66146,-0.264583 h 0.35278 l -0.17639,-0.17639 -0.17639,-0.176387 -0.17639,0.176387 -0.17638,0.17639 z m 0.66146,-0.264583 h 0.13229 v -0.132292 -0.132292 h -0.13229 -0.13229 v 0.132292 0.132292 z m 0.52917,-0.264584 h 0.13229 V 80.112052 79.97976 h -0.13229 -0.13229 v 0.132292 0.132291 z m 0.66146,-0.264583 h 0.35277 l -0.17638,-0.17639 -0.17639,-0.176387 -0.17639,0.176387 -0.17639,0.17639 z m 0.66145,-0.264583 h 0.1323 v -0.132292 -0.132292 h -0.1323 -0.13229 v 0.132292 0.132292 z m 0.52917,-0.272688 h 0.26458 l 0.39688,-0.256479 0.39687,-0.256479 h -0.26458 -0.26458 l -0.39688,0.256479 -0.39687,0.256479 z m 1.32292,-0.521062 h 0.13229 v -0.132292 -0.132292 h -0.13229 -0.13229 v 0.132292 0.132292 z m 0.66146,-0.264584 h 0.35277 l -0.17638,-0.176389 -0.17639,-0.176387 -0.17639,0.176387 -0.17639,0.176389 z m 0.66145,-0.264583 h 0.1323 v -0.132292 -0.132291 h -0.1323 -0.13229 v 0.132291 0.132292 z m 0.52917,-0.264583 h 0.13229 v -0.132292 -0.132292 h -0.13229 -0.13229 v 0.132292 0.132292 z m 0.66146,-0.264584 h 0.35278 l -0.17639,-0.176389 -0.17639,-0.176387 -0.17639,0.176387 -0.17639,0.176389 z m 0.66146,-0.264583 h 0.13229 v -0.132292 -0.132291 h -0.13229 -0.13229 v 0.132291 0.132292 z m 0.52916,-0.264583 h 0.1323 v -0.132292 -0.132292 h -0.1323 -0.13229 v 0.132292 0.132292 z m 0.66146,-0.264584 h 0.35278 l -0.17639,-0.176389 -0.17639,-0.176387 -0.17639,0.176387 -0.17638,0.176389 z m 0.66146,-0.264583 h 0.13229 v -0.132292 -0.132291 h -0.13229 -0.13229 v 0.132291 0.132292 z m 0.66146,-0.264583 h 0.35278 l -0.17639,-0.17639 -0.17639,-0.176387 -0.17639,0.176387 -0.17639,0.17639 z m 0.66146,-0.264584 h 0.13229 V 76.143302 76.01101 h -0.13229 -0.13229 v 0.132292 0.132291 z m 0.52916,-0.264583 h 0.1323 v -0.132292 -0.132291 h -0.1323 -0.13229 v 0.132291 0.132292 z m 0.66146,-0.264583 h 0.35278 l -0.17639,-0.17639 -0.17639,-0.176387 -0.17639,0.176387 -0.17638,0.17639 z m 0.66146,-0.264584 h 0.13229 V 75.349552 75.21726 h -0.13229 -0.13229 v 0.132292 0.132291 z m 0.52917,-0.264583 h 0.13229 v -0.132292 -0.132291 h -0.13229 -0.13229 v 0.132291 0.132292 z m 0.66146,-0.264583 h 0.35277 l -0.17638,-0.17639 -0.17639,-0.176387 -0.17639,0.176387 -0.17639,0.17639 z m 0.66145,-0.264584 h 0.1323 V 74.555802 74.42351 h -0.1323 -0.13229 v 0.132292 0.132291 z m 0.52917,-0.264583 h 0.13229 v -0.132292 -0.132291 h -0.13229 -0.13229 v 0.132291 0.132292 z m 0.79375,-0.264583 h 0.13229 v -0.132292 -0.132292 h -0.13229 -0.13229 v 0.132292 0.132292 z m 0.52917,-0.264584 h 0.13229 V 73.762052 73.62976 h -0.13229 -0.13229 v 0.132292 0.132291 z m 0.66146,-0.264583 h 0.35277 l -0.17638,-0.17639 -0.17639,-0.176387 -0.17639,0.176387 -0.17639,0.17639 z m 0.66145,-0.264583 h 0.1323 v -0.132292 -0.132292 h -0.1323 -0.13229 v 0.132292 0.132292 z m 0.52917,-0.264584 h 0.13229 V 72.968302 72.83601 h -0.13229 -0.13229 v 0.132292 0.132291 z m 0.66146,-0.264583 h 0.35278 l -0.17639,-0.17639 -0.17639,-0.176387 -0.17639,0.176387 -0.17639,0.17639 z m 0.66146,-0.264583 h 0.13229 v -0.132292 -0.132292 h -0.13229 -0.13229 v 0.132292 0.132292 z m 0.52916,-0.264584 h 0.1323 V 72.174552 72.04226 h -0.1323 -0.13229 v 0.132292 0.132291 z m 0.79375,-0.264583 h 0.1323 v -0.132292 -0.132291 h -0.1323 -0.13229 v 0.132291 0.132292 z m 0.52917,-0.264583 h 0.13229 v -0.132292 -0.132292 h -0.13229 -0.13229 v 0.132292 0.132292 z m 0.66146,-0.264584 h 0.35278 l -0.17639,-0.176389 -0.17639,-0.176387 -0.17639,0.176387 -0.17639,0.176389 z m 0.66146,-0.264583 h 0.13229 v -0.132292 -0.132291 h -0.13229 -0.13229 v 0.132291 0.132292 z m 0.52916,-0.264583 h 0.1323 v -0.132292 -0.132292 h -0.1323 -0.13229 v 0.132292 0.132292 z m 0.66146,-0.264584 h 0.35278 l -0.17639,-0.176389 -0.17639,-0.176387 -0.17639,0.176387 -0.17638,0.176389 z m 0.66146,-0.264583 h 0.13229 v -0.132292 -0.132291 h -0.13229 -0.13229 v 0.132291 0.132292 z m 0.52917,-0.264583 h 0.13229 v -0.132292 -0.132292 h -0.13229 -0.13229 v 0.132292 0.132292 z m 0.66146,-0.264584 h 0.35277 l -0.17638,-0.176389 -0.17639,-0.176387 -0.17639,0.176387 -0.17639,0.176389 z m 0.66145,-0.264583 h 0.1323 v -0.132292 -0.132291 h -0.1323 -0.13229 v 0.132291 0.132292 z m 0.52917,-0.264583 h 0.13229 v -0.132292 -0.132292 h -0.13229 -0.13229 v 0.132292 0.132292 z m 0.79375,-0.264584 h 0.13229 V 68.999552 68.86726 h -0.13229 -0.13229 v 0.132292 0.132291 z m 0.52917,-0.264583 h 0.13229 v -0.132292 -0.132291 h -0.13229 -0.13229 v 0.132291 0.132292 z m 0.66146,-0.264583 h 0.35277 l -0.17638,-0.17639 -0.17639,-0.176387 -0.17639,0.176387 -0.17639,0.17639 z m 0.66145,-0.264584 h 0.1323 V 68.205802 68.07351 h -0.1323 -0.13229 v 0.132292 0.132291 z m 0.52917,-0.264583 h 0.13229 v -0.132292 -0.132291 h -0.13229 -0.13229 v 0.132291 0.132292 z m 0.66146,-0.264583 h 0.35278 l -0.17639,-0.17639 -0.17639,-0.176387 -0.17639,0.176387 -0.17639,0.17639 z m 0.66146,-0.264584 h 0.13229 V 67.412052 67.27976 h -0.13229 -0.13229 v 0.132292 0.132291 z m 0.52916,-0.264583 h 0.1323 v -0.132292 -0.132291 h -0.1323 -0.13229 v 0.132291 0.132292 z m 0.79375,-0.264583 h 0.1323 v -0.132292 -0.132292 h -0.1323 -0.13229 v 0.132292 0.132292 z m 0.52917,-0.264584 h 0.13229 V 66.618302 66.48601 h -0.13229 -0.13229 v 0.132292 0.132291 z m 0.66146,-0.264583 h 0.35278 l -0.17639,-0.17639 -0.17639,-0.176387 -0.17639,0.176387 -0.17639,0.17639 z m 0.66146,-0.264583 h 0.13229 v -0.132292 -0.132292 h -0.13229 -0.13229 v 0.132292 0.132292 z m 0.52916,-0.264584 h 0.1323 V 65.824552 65.69226 h -0.1323 -0.13229 v 0.132292 0.132291 z m 0.66146,-0.264583 h 0.35278 l -0.17639,-0.17639 -0.17639,-0.176387 -0.17639,0.176387 -0.17638,0.17639 z m 0.66146,-0.264583 h 0.13229 v -0.132292 -0.132292 h -0.13229 -0.13229 v 0.132292 0.132292 z m 0.52917,-0.264584 h 0.13229 V 65.030802 64.89851 h -0.13229 -0.13229 v 0.132292 0.132291 z m 0.79375,-0.264583 h 0.13229 v -0.132292 -0.132291 h -0.13229 -0.13229 v 0.132291 0.132292 z m 0.52916,-0.264583 h 0.1323 v -0.132292 -0.132292 h -0.1323 -0.13229 v 0.132292 0.132292 z m 0.52917,-0.264584 h 0.13229 V 64.237052 64.10476 h -0.13229 -0.13229 v 0.132292 0.132291 z m 0.79375,-0.264583 h 0.13229 v -0.132292 -0.132291 h -0.13229 -0.13229 v 0.132291 0.132292 z m 0.52917,-0.264583 h 0.13229 v -0.132292 -0.132292 h -0.13229 -0.13229 v 0.132292 0.132292 z m 0.66146,-0.264584 h 0.35277 l -0.17638,-0.176389 -0.17639,-0.176387 -0.17639,0.176387 -0.17639,0.176389 z m 0.66145,-0.264583 h 0.1323 v -0.132292 -0.132291 h -0.1323 -0.13229 v 0.132291 0.132292 z m 0.52917,-0.264583 h 0.13229 v -0.132292 -0.132292 h -0.13229 -0.13229 v 0.132292 0.132292 z m 0.79375,-0.264584 h 0.13229 V 62.649552 62.51726 h -0.13229 -0.13229 v 0.132292 0.132291 z m 0.52917,-0.264583 h 0.13229 v -0.132292 -0.132291 h -0.13229 -0.13229 v 0.132291 0.132292 z m 0.52916,-0.264583 h 0.1323 v -0.132292 -0.132292 h -0.1323 -0.13229 v 0.132292 0.132292 z m 0.79375,-0.264584 h 0.1323 V 61.855802 61.72351 h -0.1323 -0.13229 v 0.132292 0.132291 z m 0.52917,-0.264583 h 0.13229 v -0.132292 -0.132291 h -0.13229 -0.13229 v 0.132291 0.132292 z m 0.52917,-0.264583 h 0.13229 v -0.132292 -0.132292 h -0.13229 -0.13229 v 0.132292 0.132292 z m 0.79375,-0.264584 h 0.13229 V 61.062052 60.92976 h -0.13229 -0.13229 v 0.132292 0.132291 z m 0.52916,-0.264583 h 0.1323 v -0.132292 -0.132291 h -0.1323 -0.13229 v 0.132291 0.132292 z m 0.79375,-0.264583 h 0.1323 v -0.132292 -0.132292 h -0.1323 -0.13229 v 0.132292 0.132292 z m 0.52917,-0.264584 h 0.13229 V 60.268302 60.13601 h -0.13229 -0.13229 v 0.132292 0.132291 z m 0.52917,-0.264583 h 0.13229 v -0.132292 -0.132291 h -0.13229 -0.13229 v 0.132291 0.132292 z m 0.79375,-0.264583 h 0.13229 v -0.132292 -0.132292 h -0.13229 -0.13229 v 0.132292 0.132292 z m 0.52916,-0.264584 h 0.1323 V 59.474552 59.34226 h -0.1323 -0.13229 v 0.132292 0.132291 z m 0.52917,-0.264583 h 0.13229 v -0.132292 -0.132291 h -0.13229 -0.13229 v 0.132291 0.132292 z m 0.79375,-0.264583 h 0.13229 v -0.132292 -0.132292 h -0.13229 -0.13229 v 0.132292 0.132292 z m 0.52917,-0.264584 h 0.13229 V 58.680802 58.54851 h -0.13229 -0.13229 v 0.132292 0.132291 z m 0.66146,-0.264583 h 0.35277 l -0.17638,-0.17639 -0.17639,-0.176387 -0.17639,0.176387 -0.17639,0.17639 z m 0.66145,-0.264583 h 0.1323 v -0.132292 -0.132292 h -0.1323 -0.13229 v 0.132292 0.132292 z m 0.52917,-0.264584 h 0.13229 V 57.887052 57.75476 h -0.13229 -0.13229 v 0.132292 0.132291 z m 0.79375,-0.264583 h 0.13229 v -0.132292 -0.132291 h -0.13229 -0.13229 v 0.132291 0.132292 z m 0.52917,-0.264583 h 0.13229 v -0.132292 -0.132292 h -0.13229 -0.13229 v 0.132292 0.132292 z m 0.52916,-0.264584 h 0.1323 V 57.093302 56.96101 h -0.1323 -0.13229 v 0.132292 0.132291 z m 0.79375,-0.264583 h 0.1323 v -0.132292 -0.132291 h -0.1323 -0.13229 v 0.132291 0.132292 z m 0.52917,-0.264583 h 0.13229 v -0.132292 -0.132292 h -0.13229 -0.13229 v 0.132292 0.132292 z m 0.52917,-0.264584 h 0.13229 V 56.299552 56.16726 h -0.13229 -0.13229 v 0.132292 0.132291 z m 0.79375,-0.264583 h 0.13229 v -0.132292 -0.132291 h -0.13229 -0.13229 v 0.132291 0.132292 z m 0.52916,-0.264583 h 0.1323 v -0.132292 -0.132292 h -0.1323 -0.13229 v 0.132292 0.132292 z m 0.79375,-0.264584 h 0.1323 V 55.505802 55.37351 h -0.1323 -0.13229 v 0.132292 0.132291 z m 0.52917,-0.264583 h 0.13229 v -0.132292 -0.132291 h -0.13229 -0.13229 v 0.132291 0.132292 z m 0.52917,-0.264583 h 0.13229 v -0.132292 -0.132292 h -0.13229 -0.13229 v 0.132292 0.132292 z"
         id="path1085" />
      <path
         style="fill:#37d637;stroke-width:0.959234"
         d="m 159.15632,85.791217 -96.903642,0.0094 V 46.113093 6.4255934 H 252.48809 442.72351 v 39.6874996 39.6875 l -93.06719,-0.0094 -93.06719,-0.0094 0.66146,-0.378124 0.66146,-0.378124 h -0.26458 -0.26459 l -0.66145,0.378124 -0.66146,0.378124 -96.90365,0.0094 z m 99.02031,-0.792478 h 0.26459 l 0.39687,-0.256479 0.39688,-0.256479 h -0.26459 -0.26458 l -0.39687,0.256479 -0.39688,0.256479 z m 1.32292,-0.539813 h 0.26458 l 0.66146,-0.378124 0.66146,-0.378124 h -0.26458 -0.26459 l -0.66145,0.378124 -0.66146,0.378124 z m 1.85208,-0.79375 h 0.26459 l 0.66146,-0.378124 0.66145,-0.378124 h -0.26458 -0.26458 l -0.66146,0.378124 -0.66146,0.378124 z m 1.85209,-0.783103 h 0.26458 l 0.39688,-0.25648 0.39687,-0.256479 h -0.26458 -0.26459 l -0.39687,0.256479 -0.39688,0.25648 z m 1.32291,-0.521063 h 0.1323 v -0.132292 -0.132291 h -0.1323 -0.13229 v 0.132291 0.132292 z m 0.52917,-0.272687 h 0.26458 l 0.39688,-0.25648 0.39687,-0.256479 h -0.26458 -0.26458 l -0.39688,0.256479 -0.39687,0.25648 z m 1.32292,-0.539814 h 0.26458 l 0.66146,-0.378124 0.66146,-0.378124 h -0.26459 -0.26458 l -0.66146,0.378124 -0.66146,0.378124 z m 1.85208,-0.79375 h 0.26458 l 0.66146,-0.378124 0.66146,-0.378124 h -0.26458 -0.26459 l -0.66145,0.378124 -0.66146,0.378124 z m 1.85208,-0.783103 h 0.26459 l 0.39687,-0.256479 0.39688,-0.256479 h -0.26459 -0.26458 l -0.39687,0.256479 -0.39688,0.256479 z m 1.32292,-0.539814 h 0.26458 l 0.66146,-0.378124 0.66146,-0.378124 h -0.26458 -0.26459 l -0.66145,0.378124 -0.66146,0.378124 z m 1.85208,-0.79375 h 0.26459 l 0.66146,-0.378124 0.66145,-0.378124 h -0.26458 -0.26458 l -0.66146,0.378124 -0.66146,0.378124 z m 1.85209,-0.783103 h 0.26458 l 0.39688,-0.256479 0.39687,-0.256479 h -0.26458 -0.26459 l -0.39687,0.256479 -0.39688,0.256479 z m 1.32291,-0.521062 h 0.1323 v -0.132292 -0.132292 h -0.1323 -0.13229 v 0.132292 0.132292 z m 0.52917,-0.272688 h 0.26458 l 0.39688,-0.256479 0.39687,-0.256479 h -0.26458 -0.26458 l -0.39688,0.256479 -0.39687,0.256479 z m 1.32292,-0.539813 h 0.26458 l 0.66146,-0.378124 0.66146,-0.378124 h -0.26459 -0.26458 l -0.66146,0.378124 -0.66146,0.378124 z m 1.85208,-0.783103 h 0.26458 l 0.39688,-0.25648 0.39687,-0.256479 h -0.26458 -0.26458 l -0.39688,0.256479 -0.39687,0.25648 z m 1.32292,-0.521063 h 0.13229 v -0.132292 -0.132291 h -0.13229 -0.13229 v 0.132291 0.132292 z m 0.52916,-0.272687 h 0.26459 l 0.39687,-0.25648 0.39688,-0.256479 h -0.26459 -0.26458 l -0.39687,0.256479 -0.39688,0.25648 z m 1.32292,-0.521063 h 0.13229 v -0.132292 -0.132291 h -0.13229 -0.13229 v 0.132291 0.132292 z m 0.52917,-0.272687 h 0.26458 l 0.39688,-0.25648 0.39687,-0.256479 h -0.26458 -0.26459 l -0.39687,0.256479 -0.39688,0.25648 z m 1.32291,-0.529167 h 0.26459 l 0.39687,-0.256479 0.39688,-0.256479 h -0.26459 -0.26458 l -0.39687,0.256479 -0.39688,0.256479 z m 1.32292,-0.521063 h 0.13229 V 72.968302 72.83601 h -0.13229 -0.13229 v 0.132292 0.132291 z m 0.52917,-0.272687 h 0.26458 l 0.39688,-0.256479 0.39687,-0.256479 h -0.26458 -0.26459 l -0.39687,0.256479 -0.39688,0.256479 z m 1.32291,-0.521063 h 0.1323 V 72.174552 72.04226 h -0.1323 -0.13229 v 0.132292 0.132291 z m 0.52917,-0.272687 h 0.26458 l 0.39688,-0.256479 0.39687,-0.256479 h -0.26458 -0.26458 l -0.39688,0.256479 -0.39687,0.256479 z m 1.32292,-0.529167 h 0.26458 l 0.39688,-0.256479 0.39687,-0.256479 h -0.26458 -0.26459 l -0.39687,0.256479 -0.39688,0.256479 z m 1.32291,-0.521062 h 0.1323 v -0.132292 -0.132292 h -0.1323 -0.13229 v 0.132292 0.132292 z m 0.52917,-0.272688 h 0.26458 l 0.39688,-0.256479 0.39687,-0.256479 h -0.26458 -0.26458 l -0.39688,0.256479 -0.39687,0.256479 z m 1.32292,-0.521062 h 0.13229 v -0.132292 -0.132292 h -0.13229 -0.13229 v 0.132292 0.132292 z m 0.52916,-0.272688 h 0.26459 l 0.39687,-0.256479 0.39688,-0.256479 h -0.26459 -0.26458 l -0.39687,0.256479 -0.39688,0.256479 z m 1.32292,-0.521062 h 0.13229 v -0.132292 -0.132292 h -0.13229 -0.13229 v 0.132292 0.132292 z m 0.66146,-0.264584 h 0.35278 l -0.17639,-0.176389 -0.17639,-0.176387 -0.17639,0.176387 -0.17639,0.176389 z m 0.66146,-0.264583 h 0.13229 v -0.132292 -0.132291 h -0.13229 -0.13229 v 0.132291 0.132292 z m 0.52916,-0.272687 h 0.26459 l 0.39687,-0.25648 0.39688,-0.256479 h -0.26459 -0.26458 l -0.39687,0.256479 -0.39688,0.25648 z m 1.32292,-0.521063 h 0.13229 v -0.132292 -0.132291 h -0.13229 -0.13229 v 0.132291 0.132292 z m 0.52917,-0.272687 h 0.26458 l 0.39688,-0.25648 0.39687,-0.256479 h -0.26458 -0.26459 l -0.39687,0.256479 -0.39688,0.25648 z m 1.32291,-0.521063 h 0.1323 v -0.132292 -0.132291 h -0.1323 -0.13229 v 0.132291 0.132292 z m 0.52917,-0.272687 h 0.26458 l 0.39688,-0.25648 0.39687,-0.256479 h -0.26458 -0.26458 l -0.39688,0.256479 -0.39687,0.25648 z m 1.32292,-0.529167 h 0.26458 l 0.39688,-0.256479 0.39687,-0.256479 h -0.26458 -0.26459 l -0.39687,0.256479 -0.39688,0.256479 z m 1.32291,-0.521063 h 0.1323 V 65.824552 65.69226 h -0.1323 -0.13229 v 0.132292 0.132291 z m 0.52917,-0.272687 h 0.26458 l 0.39688,-0.256479 0.39687,-0.256479 h -0.26458 -0.26458 l -0.39688,0.256479 -0.39687,0.256479 z m 1.32292,-0.521063 h 0.13229 V 65.030802 64.89851 h -0.13229 -0.13229 v 0.132292 0.132291 z m 0.52916,-0.272687 h 0.26459 l 0.39687,-0.256479 0.39688,-0.256479 h -0.26459 -0.26458 l -0.39687,0.256479 -0.39688,0.256479 z m 1.32292,-0.521063 h 0.13229 V 64.237052 64.10476 h -0.13229 -0.13229 v 0.132292 0.132291 z m 0.66146,-0.264583 h 0.35278 l -0.17639,-0.17639 -0.17639,-0.176387 -0.17639,0.176387 -0.17639,0.17639 z m 0.66146,-0.264583 h 0.13229 v -0.132292 -0.132292 h -0.13229 -0.13229 v 0.132292 0.132292 z m 0.52916,-0.272688 h 0.26459 l 0.39687,-0.256479 0.39688,-0.256479 h -0.26459 -0.26458 l -0.39687,0.256479 -0.39688,0.256479 z m 1.32292,-0.521062 h 0.13229 v -0.132292 -0.132292 h -0.13229 -0.13229 v 0.132292 0.132292 z m 0.52917,-0.272688 h 0.26458 l 0.39688,-0.256479 0.39687,-0.256479 h -0.26458 -0.26459 l -0.39687,0.256479 -0.39688,0.256479 z m 1.32291,-0.521062 h 0.1323 v -0.132292 -0.132292 h -0.1323 -0.13229 v 0.132292 0.132292 z m 0.66146,-0.264584 h 0.35278 l -0.17639,-0.176389 -0.17639,-0.176387 -0.17639,0.176387 -0.17638,0.176389 z m 0.66146,-0.264583 h 0.13229 v -0.132292 -0.132291 h -0.13229 -0.13229 v 0.132291 0.132292 z m 0.52917,-0.264583 h 0.13229 v -0.132292 -0.132292 h -0.13229 -0.13229 v 0.132292 0.132292 z m 0.66146,-0.264584 h 0.35277 l -0.17638,-0.176389 -0.17639,-0.176387 -0.17639,0.176387 -0.17639,0.176389 z m 0.66145,-0.264583 h 0.1323 v -0.132292 -0.132291 h -0.1323 -0.13229 v 0.132291 0.132292 z m 0.52917,-0.272687 h 0.26458 l 0.39688,-0.25648 0.39687,-0.256479 h -0.26458 -0.26458 l -0.39688,0.256479 -0.39687,0.25648 z m 1.32292,-0.521063 h 0.13229 v -0.132292 -0.132291 h -0.13229 -0.13229 v 0.132291 0.132292 z m 0.66146,-0.264583 h 0.35277 l -0.17638,-0.17639 -0.17639,-0.176387 -0.17639,0.176387 -0.17639,0.17639 z m 0.66145,-0.264584 h 0.1323 V 59.474552 59.34226 h -0.1323 -0.13229 v 0.132292 0.132291 z m 0.52917,-0.264583 h 0.13229 v -0.132292 -0.132291 h -0.13229 -0.13229 v 0.132291 0.132292 z m 0.66146,-0.264583 h 0.35278 l -0.17639,-0.17639 -0.17639,-0.176387 -0.17639,0.176387 -0.17639,0.17639 z m 0.66146,-0.264584 h 0.13229 V 58.680802 58.54851 h -0.13229 -0.13229 v 0.132292 0.132291 z m 0.52916,-0.272687 h 0.26459 l 0.39687,-0.256479 0.39688,-0.256479 h -0.26459 -0.26458 l -0.39687,0.256479 -0.39688,0.256479 z m 1.32292,-0.521063 h 0.13229 V 57.887052 57.75476 h -0.13229 -0.13229 v 0.132292 0.132291 z m 0.66146,-0.264583 h 0.35278 l -0.17639,-0.17639 -0.17639,-0.176387 -0.17639,0.176387 -0.17639,0.17639 z m 0.66146,-0.264583 h 0.13229 v -0.132292 -0.132292 h -0.13229 -0.13229 v 0.132292 0.132292 z m 0.52916,-0.264584 h 0.1323 V 57.093302 56.96101 h -0.1323 -0.13229 v 0.132292 0.132291 z m 0.66146,-0.264583 h 0.35278 l -0.17639,-0.17639 -0.17639,-0.176387 -0.17639,0.176387 -0.17638,0.17639 z m 0.66146,-0.264583 h 0.13229 v -0.132292 -0.132292 h -0.13229 -0.13229 v 0.132292 0.132292 z m 0.52917,-0.264584 h 0.13229 V 56.299552 56.16726 h -0.13229 -0.13229 v 0.132292 0.132291 z m 0.66146,-0.264583 h 0.35276 l -0.17637,-0.17639 -0.17639,-0.176387 -0.17639,0.176387 -0.17639,0.17639 z m 0.66145,-0.264583 h 0.1323 v -0.132292 -0.132292 h -0.1323 -0.13229 v 0.132292 0.132292 z m 0.52917,-0.272688 h 0.26458 l 0.39688,-0.256479 0.39687,-0.256479 h -0.26458 -0.26458 l -0.39688,0.256479 -0.39687,0.256479 z m 1.32292,-0.521062 h 0.13229 v -0.132292 -0.132292 h -0.13229 -0.13229 v 0.132292 0.132292 z"
         id="path1083" />
      <path
         style="fill:#35ca35;stroke-width:0.959234"
         d="m 159.02403,85.792547 -96.771352,0.008 V 70.322468 54.844343 h 60.520362 60.52035 l 35.85412,15.244805 35.85412,15.244802 0.39688,0.225277 0.39687,0.225274 -96.77135,0.008 z m 190.65433,0.008 h -93.04513 l 0.11116,-0.11116 0.11116,-0.111159 36.3762,-15.366963 36.37619,-15.366966 h 56.55779 56.55778 v 15.478125 15.478125 h -93.04515 z m -93.27533,-17.350767 -0.34306,0.10459 -35.05729,-14.922947 -35.05729,-14.922947 -61.84636,-0.0019 -61.846352,-0.0019 V 22.565177 6.4255934 H 252.48809 442.72351 V 22.565177 38.70476 H 384.89832 327.0731 l -35.1635,14.820239 -35.16351,14.820238 z"
         id="path1081" />
      <path
         style="fill:#33be33;stroke-width:0.959234"
         d="m 159.02403,85.792547 -96.771352,0.008 V 70.322468 54.844343 h 60.520362 60.52035 l 35.85412,15.244805 35.85412,15.244802 0.39688,0.225277 0.39687,0.225274 -96.77135,0.008 z m 190.65433,0.008 h -93.04513 l 0.11116,-0.11116 0.11116,-0.111159 36.3762,-15.366963 36.37619,-15.366966 h 56.55779 56.55778 v 15.478125 15.478125 h -93.04515 z m -93.35381,-17.332839 -0.26458,0.08343 -35.05729,-14.922111 -35.05729,-14.922114 -61.84636,-0.0011 -61.846352,-0.0011 V 22.565177 6.4255934 H 252.48809 442.72351 V 22.565177 38.70476 h -57.89017 -57.89017 l -35.17702,14.839781 -35.17702,14.839783 z"
         id="path1079" />
      <path
         style="fill:#31b231;stroke-width:0.959234"
         d="m 159.02403,85.792547 -96.771352,0.008 V 70.322468 54.844343 h 60.520362 60.52035 l 35.85412,15.244805 35.85412,15.244802 0.39688,0.225277 0.39687,0.225274 -96.77135,0.008 z m 190.65433,0.008 h -93.04513 l 0.11116,-0.11116 0.11116,-0.111159 36.3762,-15.366963 36.37619,-15.366966 h 56.55779 56.55778 V 70.322468 85.800593 H 349.67836 Z M 256.08498,68.309794 255.5308,68.281494 220.87038,53.508946 186.20997,38.736399 124.23132,38.72058 62.252678,38.70476 V 22.565177 6.4255934 H 252.48809 442.72351 V 22.565177 38.70476 h -57.89319 -57.89316 l -35.149,14.816667 -35.14899,14.816666 z"
         id="path1077" />
      <path
         style="fill:#2fa62f;stroke-width:0.959234"
         d="m 159.02403,85.792547 -96.771352,0.008 V 70.322468 54.844343 h 60.520362 60.52035 l 35.85412,15.244805 35.85412,15.244802 0.39688,0.225277 0.39687,0.225274 -96.77135,0.008 z m 190.65433,0.008 h -93.04513 l 0.11116,-0.11116 0.11116,-0.111159 36.3762,-15.366963 36.37619,-15.366966 h 56.55779 56.55778 V 70.322468 85.800593 H 349.67836 Z M 256.08246,68.309521 255.5308,68.280949 220.87038,53.506634 186.20997,38.732319 124.23132,38.71854 62.252678,38.70476 V 22.565177 6.4255934 H 252.48809 442.72351 V 22.565177 38.70476 h -57.90245 -57.90247 l -35.14223,14.816667 -35.14224,14.816666 z"
         id="path1075" />
      <path
         style="fill:#2d9a2d;stroke-width:0.959234"
         d="m 159.02403,85.792547 -96.771352,0.008 V 70.322468 54.844343 h 60.520362 60.52035 l 35.85412,15.244805 35.85412,15.244802 0.39688,0.225277 0.39687,0.225274 -96.77135,0.008 z m 190.65433,0.008 h -93.04513 l 0.11116,-0.11116 0.11116,-0.111159 36.3762,-15.366963 36.37619,-15.366966 h 56.55779 56.55778 v 15.478125 15.478125 h -93.04515 z m -93.52728,-17.471004 -0.3557,-0.0085 -34.7927,-14.79781 -34.79271,-14.79781 -61.97865,-0.01035 -61.978642,-0.01035 V 22.565177 6.4255934 H 252.48809 442.72351 V 22.565177 38.70476 h -57.94989 -57.94987 l -35.15849,14.816667 -35.15848,14.816666 -0.3557,-0.0085 z"
         id="path1073" />
      <path
         style="fill:#2b8e2b;stroke-width:0.959234"
         d="m 159.02403,85.792547 -96.771352,0.008 V 70.322468 54.844343 h 60.520362 60.52035 l 35.85412,15.244805 35.85412,15.244802 0.39688,0.225277 0.39687,0.225274 -96.77135,0.008 z m 190.65433,0.008 h -93.04513 l 0.11116,-0.11116 0.11116,-0.111159 36.3762,-15.366963 36.37619,-15.366966 h 56.55779 56.55778 v 15.478125 15.478125 h -93.04515 z m -93.53144,-17.471581 -0.35154,-0.0091 -34.7927,-14.798503 -34.79271,-14.798503 -61.97865,-0.0091 -61.978642,-0.0091 V 22.565177 6.4255934 H 252.48809 442.72351 V 22.565177 38.70476 h -57.95748 -57.95751 l -35.15503,14.816667 -35.15503,14.816666 -0.35154,-0.0091 z"
         id="path1071" />
      <path
         style="fill:#2a8e2a;stroke-width:0.959234"
         d="m 159.02403,85.792547 -96.771352,0.008 V 70.322468 54.844343 h 60.520362 60.52035 l 35.85412,15.244805 35.85412,15.244802 0.39688,0.225277 0.39687,0.225274 -96.77135,0.008 z m 190.65433,0.008 h -93.04513 l 0.11116,-0.11116 0.11116,-0.111159 36.3762,-15.366963 36.37619,-15.366966 h 56.55779 56.55778 v 15.478125 15.478125 h -93.04515 z m -93.53515,-17.471581 -0.34783,-0.0091 -34.7927,-14.798503 -34.79271,-14.798503 -61.97865,-0.0091 -61.978642,-0.0091 V 22.565177 6.4255934 H 252.48809 442.72351 V 22.565177 38.70476 h -57.9632 -57.96321 l -35.15303,14.816667 -35.15303,14.816666 -0.34783,-0.0091 z"
         id="path1069" />
      <path
         style="fill:#298229;stroke-width:0.959234"
         d="m 159.02403,85.792547 -96.771352,0.008 V 70.322468 54.844343 h 60.520362 60.52035 l 35.85412,15.244805 35.85412,15.244802 0.39688,0.225277 0.39687,0.225274 -96.77135,0.008 z m 190.65433,0.008 h -93.04513 l 0.11116,-0.11116 0.11116,-0.111159 36.3762,-15.366963 36.37619,-15.366966 h 56.55779 56.55778 V 70.322468 85.800593 H 349.67836 Z M 256.14321,68.318231 255.79538,68.298369 221.01431,53.501564 186.23324,38.70476 H 124.24296 62.252678 V 22.565177 6.4255934 H 252.48809 442.72351 V 22.565177 38.70476 h -57.9632 -57.96321 l -35.15303,14.816667 -35.15303,14.816666 -0.34783,-0.01987 z"
         id="path1067" />
      <path
         style="fill:#288228;stroke-width:0.959234"
         d="m 159.02403,85.792547 -96.771352,0.008 V 70.322468 54.844343 h 60.520362 60.52035 l 35.85412,15.244805 35.85412,15.244802 0.39688,0.225277 0.39687,0.225274 -96.77135,0.008 z m 190.65433,0.008 h -93.04513 l 0.11116,-0.11116 0.11116,-0.111159 36.3762,-15.366963 36.37619,-15.366966 h 56.55779 56.55778 V 70.322468 85.800593 H 349.67836 Z M 256.14321,68.317527 255.79538,68.296964 221.01781,53.500861 186.24023,38.70476 H 124.24645 62.252678 V 22.565177 6.4255934 H 252.48809 442.72351 V 22.565177 38.70476 h -57.9632 -57.96321 l -35.15303,14.816667 -35.15303,14.816666 -0.34783,-0.02056 z"
         id="path1065" />
      <path
         style="fill:#277627;stroke-width:0.959234"
         d="m 159.02403,85.792547 -96.771352,0.008 V 70.322468 54.844343 h 60.520362 60.52035 l 35.85412,15.244805 35.85412,15.244802 0.39688,0.225277 0.39687,0.225274 -96.77135,0.008 z m 190.65433,0.008 h -93.04513 l 0.11116,-0.11116 0.11116,-0.111159 36.3762,-15.366963 36.37619,-15.366966 h 56.55779 56.55778 V 70.322468 85.800593 H 349.67836 Z M 256.12632,68.317527 255.79538,68.296964 221.01781,53.500861 186.24023,38.70476 H 124.24645 62.252678 V 22.565177 6.4255934 H 252.48809 442.72351 V 22.565177 38.70476 H 384.7419 326.76026 l -35.1515,14.816667 -35.15151,14.816666 -0.33093,-0.02056 z"
         id="path1063" />
      <path
         style="fill:#3e3e3e;stroke-width:0.959234"
         d="m 159.02403,85.792547 -96.771352,0.008 V 70.322468 54.844343 h 60.520362 60.52035 l 35.85412,15.244805 35.85412,15.244802 0.39688,0.225277 0.39687,0.225274 -96.77135,0.008 z m 190.65433,0.008 h -93.04513 l 0.11116,-0.11116 0.11116,-0.111159 36.3762,-15.366963 36.37619,-15.366966 h 56.55779 56.55778 V 70.322468 85.800593 H 349.67836 Z M 256.08414,68.317411 255.79538,68.296726 221.02193,53.500744 186.24848,38.70476 H 124.25058 62.252678 V 22.565177 6.4255934 H 252.48809 442.72351 V 22.565177 38.70476 h -58.02934 -58.02936 l -35.14596,14.816667 -35.14595,14.816666 -0.28876,-0.02069 z"
         id="path1061" />
      <path
         style="fill:#256a25;stroke-width:0.959234"
         d="M 256.08414,68.317411 255.79538,68.296726 221.02193,53.500744 186.24848,38.70476 H 124.25058 62.252678 V 22.565177 6.4255934 H 252.48809 442.72351 V 22.565177 38.70476 h -58.02934 -58.02936 l -35.14596,14.816667 -35.14595,14.816666 -0.28876,-0.02069 z"
         id="path1059" />
      <path
         style="fill:#246a24;stroke-width:0.959234"
         d="M 256.08414,68.316654 255.79538,68.295215 221.02752,53.499988 186.25965,38.70476 H 124.25616 62.252678 V 22.565177 6.4255934 H 252.48809 442.72351 V 22.565177 38.70476 h -58.02934 -58.02936 l -35.14596,14.816667 -35.14595,14.816666 -0.28876,-0.02143 z"
         id="path1057" />
      <path
         style="fill:#225e22;stroke-width:0.959234"
         d="M 256.32455,68.230239 255.79538,68.31376 221.02752,53.509261 186.25965,38.70476 H 124.25616 62.252678 V 22.565177 6.4255934 H 252.48809 442.72351 V 22.565177 38.70476 h -58.04456 -58.04458 l -34.89033,14.720978 -34.89032,14.720977 z"
         id="path1055" />
      <path
         style="fill:#205220;stroke-width:0.959234"
         d="M 256.45684,68.236734 256.05997,68.33726 221.21093,53.521009 186.36189,38.70476 H 124.30729 62.252678 V 22.565177 6.4255934 H 252.48809 442.72351 V 22.565177 38.70476 h -58.04792 -58.04792 l -34.88698,14.715726 -34.88697,14.715725 z"
         id="path1053" />
      <path
         style="fill:#1e461e;stroke-width:0.959234"
         d="M 256.45684,68.233557 256.05997,68.334191 221.26726,53.529613 186.47455,38.725038 124.36361,38.714899 62.252678,38.70476 V 22.565177 6.4255934 H 252.48809 442.72351 V 22.565177 38.70476 h -58.05162 -58.05164 l -34.88327,14.714082 -34.88326,14.714083 z"
         id="path1051" />
      <path
         style="fill:#1c3a1c;stroke-width:0.959234"
         d="m 256.13189,68.325952 -0.0719,-0.01214 -34.79271,-14.799299 -34.79271,-14.7993 -62.11094,-0.0052 -62.110932,-0.0052 V 22.565177 6.4255934 H 252.48809 442.72351 V 22.565177 38.70476 h -58.11242 -58.11243 l -35.14742,14.816667 -35.14742,14.816666 -0.0719,-0.01214 z"
         id="path1049" />
      <path
         style="fill:#1a2e1a;stroke-width:0.959234"
         d="m 256.12233,68.325261 -0.0624,-0.01283 -34.79271,-14.80022 -34.79271,-14.80022 -62.11094,-0.0036 -62.110932,-0.0036 V 22.565177 6.4255934 H 252.48809 442.72351 V 22.565177 38.70476 h -58.11465 -58.11462 l -35.15478,14.816667 -35.15477,14.816666 z"
         id="path1047" />
      <path
         style="fill:#182218;stroke-width:0.959234"
         d="M 256.45684,68.166821 256.05997,68.286267 221.39955,53.514071 186.73914,38.741878 124.49591,38.723331 62.252678,38.70476 V 22.565177 6.4255934 H 252.48809 442.72351 V 22.565177 38.70476 h -58.12332 -58.12334 l -34.81157,14.671307 -34.81156,14.67131 z"
         id="path1045" />
      <path
         style="fill:#161616;stroke-width:0.959234"
         d="m 256.32455,68.205114 -0.26458,0.0782 -34.66042,-14.771651 -34.66041,-14.77165 -62.24323,-0.01762 -62.243232,-0.01763 V 22.565177 6.4255934 H 252.48809 442.72351 V 22.565177 38.70476 H 384.5433 326.36308 l -34.88697,14.711079 -34.88698,14.71108 z"
         id="path1043" />
    </g>
  </g>
</svg>
