<?xml version="1.0" encoding="UTF-8" standalone="no"?>
<svg
   xmlns:dc="http://purl.org/dc/elements/1.1/"
   xmlns:cc="http://creativecommons.org/ns#"
   xmlns:rdf="http://www.w3.org/1999/02/22-rdf-syntax-ns#"
   xmlns:svg="http://www.w3.org/2000/svg"
   xmlns="http://www.w3.org/2000/svg"
   xmlns:sodipodi="http://sodipodi.sourceforge.net/DTD/sodipodi-0.dtd"
   xmlns:inkscape="http://www.inkscape.org/namespaces/inkscape"
   sodipodi:docname="line_divider_svg.svg"
   inkscape:version="1.0 (4035a4fb49, 2020-05-01)"
   id="svg8"
   version="1.1"
   viewBox="0 0 495 23"
   height="23mm"
   width="495mm">
  <defs
     id="defs2" />
  <sodipodi:namedview
     inkscape:pagecheckerboard="true"
     inkscape:window-maximized="1"
     inkscape:window-y="-8"
     inkscape:window-x="-8"
     inkscape:window-height="1017"
     inkscape:window-width="1920"
     showgrid="false"
     inkscape:document-rotation="0"
     inkscape:current-layer="layer1"
     inkscape:document-units="mm"
     inkscape:cy="40.175278"
     inkscape:cx="1759.4067"
     inkscape:zoom="2.8284271"
     inkscape:pageshadow="2"
     inkscape:pageopacity="0.0"
     borderopacity="1.0"
     bordercolor="#666666"
     pagecolor="#ffffff"
     id="base" />
  <metadata
     id="metadata5">
    <rdf:RDF>
      <cc:Work
         rdf:about="">
        <dc:format>image/svg+xml</dc:format>
        <dc:type
           rdf:resource="http://purl.org/dc/dcmitype/StillImage" />
        <dc:title></dc:title>
      </cc:Work>
    </rdf:RDF>
  </metadata>
  <g
     id="layer1"
     inkscape:groupmode="layer"
     inkscape:label="Layer 1">
    <path
       id="path1715"
       d="m 30.691273,22.018862 -1.146528,-0.04561 -3.31305,-0.395359 -3.31305,-0.395359 -2.345426,-9.889281 -2.345426,-9.8892827 4.391304,0.449424 4.391304,0.449424 0.142994,0.142994 0.142995,0.142995 2.270705,9.5838877 2.270706,9.583887 v 0.153948 0.153948 z m 35.277777,0 -1.146527,-0.04561 -3.313049,-0.395359 -3.313053,-0.395359 -2.345425,-9.889281 -2.345426,-9.8892827 4.391304,0.449424 4.391304,0.449424 0.142995,0.142994 0.142995,0.142995 2.270703,9.5838877 2.270707,9.583887 v 0.153948 0.153948 z m 35.27778,0 -1.14653,-0.04561 -3.31305,-0.395359 -3.313046,-0.395359 -2.34543,-9.889281 -2.34542,-9.8892827 4.3913,0.449424 4.391296,0.449424 0.143,0.142994 0.14299,0.142995 2.27071,9.5838877 2.2707,9.583887 v 0.153948 0.153948 z m 35.27777,0 -1.14653,-0.04561 -3.31304,-0.395359 -3.31306,-0.395359 -2.34542,-9.889281 -2.34543,-9.8892827 4.39131,0.449424 4.3913,0.449424 0.14299,0.142994 0.143,0.142995 2.2707,9.5838877 2.27071,9.583887 v 0.153948 0.153948 z m 35.27778,0 -1.14653,-0.04561 -3.31305,-0.395359 -3.31305,-0.395359 -2.34543,-9.889281 -2.34542,-9.8892827 4.3913,0.449424 4.39131,0.449424 0.14299,0.142994 0.143,0.142995 2.2707,9.5838877 2.27071,9.583887 v 0.153948 0.153948 z m 35.27778,0 -1.14653,-0.04561 -3.31305,-0.395359 -3.31305,-0.395359 -2.34543,-9.889281 -2.34542,-9.8892827 4.3913,0.449424 4.3913,0.449424 0.143,0.142994 0.14299,0.142995 2.27071,9.5838877 2.2707,9.583887 v 0.153948 0.153948 z m 35.27777,0 -1.14652,-0.04561 -3.31305,-0.395359 -3.31306,-0.395359 -2.34542,-9.889281 -2.34543,-9.8892827 4.39131,0.449424 4.3913,0.449424 0.143,0.142994 0.14299,0.142995 2.2707,9.5838877 2.27071,9.583887 v 0.153948 0.153948 z m 35.27778,0 -1.14653,-0.04561 -3.31305,-0.395359 -3.31305,-0.395359 -2.34542,-9.889281 -2.34543,-9.8892827 4.3913,0.449424 4.39131,0.449424 0.14299,0.142994 0.143,0.142995 2.2707,9.5838877 2.27071,9.583887 v 0.153948 0.153948 z m 35.27778,0 -1.14653,-0.04561 -3.31305,-0.395359 -3.31305,-0.395359 -2.34543,-9.889281 -2.34542,-9.8892827 4.3913,0.449424 4.39131,0.449424 0.14299,0.142994 0.14299,0.142995 2.27071,9.5838877 2.27071,9.583887 v 0.153948 0.153948 z m 35.27777,0 -1.14652,-0.04561 -3.31305,-0.395359 -3.31305,-0.395359 -2.34543,-9.889281 -2.34543,-9.8892827 4.39131,0.449424 4.3913,0.449424 0.143,0.142994 0.14299,0.142995 2.27071,9.5838877 2.2707,9.583887 v 0.153948 0.153948 z m 35.27778,0 -1.14653,-0.04561 -3.31304,-0.395359 -3.31304,-0.395359 -2.34544,-9.889281 -2.34545,-9.8892827 4.39131,0.449424 4.39131,0.449424 0.14301,0.142994 0.14299,0.142995 2.27072,9.5838877 2.27069,9.583887 v 0.153948 0.153948 z m 35.27778,0 -1.14653,-0.04561 -3.31304,-0.395359 -3.31304,-0.395359 -2.34545,-9.889281 -2.34544,-9.8892827 4.39131,0.449424 4.39131,0.449424 0.14301,0.142994 0.14298,0.142995 2.27073,9.5838877 2.27069,9.583887 v 0.153948 0.153948 z m 35.27778,0 -1.14653,-0.04561 -3.31304,-0.395359 -3.31305,-0.395359 -2.34544,-9.889281 -2.34544,-9.8892827 4.39131,0.449424 4.3913,0.449424 0.14302,0.142994 0.14298,0.142995 2.27072,9.5838877 2.27069,9.583887 v 0.153948 0.153948 z m 35.27777,0 -1.14652,-0.04561 -3.31305,-0.395359 -3.31304,-0.395359 -2.34544,-9.889281 -2.34544,-9.8892827 4.3913,0.449424 4.39131,0.449424 0.14302,0.142994 0.14298,0.142995 2.27072,9.5838877 2.27069,9.583887 v 0.153948 0.153948 z M 14.1072,21.526026 l -0.08468,0.04248 -4.3973084,-0.474554 -4.3973068,-0.474554 -0.0504,-0.07121 -0.0504,-0.07121 -2.289234,-9.701389 -2.28923401,-9.7013897 0.09895,-0.12357902 0.09895,-0.123579 4.37721401,0.44326402 4.3772148,0.443263 2.3454574,9.8849917 2.345457,9.884991 z m 35.277778,0 -0.08468,0.04248 -4.397308,-0.474554 -4.397308,-0.474554 -0.0504,-0.07121 -0.0504,-0.07121 -2.289231,-9.701389 -2.289235,-9.7013897 0.09895,-0.12357902 0.09895,-0.123579 4.377214,0.44326402 4.377217,0.443263 2.345457,9.8849917 2.345457,9.884991 z m 35.277777,0 -0.08468,0.04248 -4.397308,-0.474554 -4.397308,-0.474554 -0.0504,-0.07121 -0.0504,-0.07121 -2.289231,-9.701389 -2.289235,-9.7013897 0.09895,-0.12357902 0.09895,-0.123579 4.377214,0.44326402 4.377217,0.443263 2.345457,9.8849917 2.345457,9.884991 z m 35.277775,0 -0.0847,0.04248 -4.39731,-0.474554 -4.3973,-0.474554 -0.0504,-0.07121 -0.0504,-0.07121 -2.28923,-9.701389 -2.28923,-9.7013897 0.099,-0.12357902 0.0989,-0.123579 4.37722,0.44326402 4.37721,0.443263 2.34546,9.8849917 2.34546,9.884991 z m 35.27778,0 -0.0847,0.04248 -4.39731,-0.474554 -4.39731,-0.474554 -0.0504,-0.07121 -0.0504,-0.07121 -2.28923,-9.701389 -2.28923,-9.7013897 0.0989,-0.12357902 0.099,-0.123579 4.37721,0.44326402 4.37722,0.443263 2.34546,9.8849917 2.34545,9.884991 z m 35.27777,0 -0.0847,0.04248 -4.39731,-0.474554 -4.39731,-0.474554 -0.0504,-0.07121 -0.0504,-0.07121 -2.28923,-9.701389 -2.28924,-9.7013897 0.099,-0.12357902 0.099,-0.123579 4.37721,0.44326402 4.37722,0.443263 2.34545,9.8849917 2.34546,9.884991 z m 35.27778,0 -0.0847,0.04248 -4.3973,-0.474554 -4.39731,-0.474554 -0.0504,-0.07121 -0.0504,-0.07121 -2.28924,-9.701389 -2.28923,-9.7013897 0.099,-0.12357902 0.0989,-0.123579 4.37722,0.44326402 4.37721,0.443263 2.34546,9.8849917 2.34546,9.884991 z m 35.27778,0 -0.0847,0.04248 -4.39731,-0.474554 -4.3973,-0.474554 -0.0504,-0.07121 -0.0504,-0.07121 -2.28923,-9.701389 -2.28923,-9.7013897 0.0989,-0.12357902 0.099,-0.123579 4.37721,0.44326402 4.37722,0.443263 2.34546,9.8849917 2.34546,9.884991 z m 35.27778,0 -0.0847,0.04248 -4.39731,-0.474554 -4.39731,-0.474554 -0.0504,-0.07121 -0.0504,-0.07121 -2.28923,-9.701389 -2.28924,-9.7013897 0.099,-0.12357902 0.099,-0.123579 4.37721,0.44326402 4.37722,0.443263 2.34546,9.8849917 2.34545,9.884991 z m 35.27777,0 -0.0847,0.04248 -4.39731,-0.474554 -4.39731,-0.474554 -0.0504,-0.07121 -0.0504,-0.07121 -2.28923,-9.701389 -2.28924,-9.7013897 0.099,-0.12357902 0.0989,-0.123579 4.37722,0.44326402 4.37722,0.443263 2.34545,9.8849917 2.34546,9.884991 z m 35.27777,0 -0.0847,0.04248 -4.3973,-0.474554 -4.39731,-0.474554 -0.0504,-0.07121 -0.0504,-0.07121 -2.28921,-9.701389 -2.28925,-9.7013897 0.099,-0.12357902 0.099,-0.123579 4.3772,0.44326402 4.37723,0.443263 2.34544,9.8849917 2.34548,9.884991 z m 35.27778,0 -0.0847,0.04248 -4.39731,-0.474554 -4.3973,-0.474554 -0.0504,-0.07121 -0.0504,-0.07121 -2.28921,-9.701389 -2.28925,-9.7013897 0.099,-0.12357902 0.099,-0.123579 4.3772,0.44326402 4.37723,0.443263 2.34544,9.8849917 2.34548,9.884991 z m 35.27777,0 -0.0847,0.04248 -4.39731,-0.474554 -4.3973,-0.474554 -0.0504,-0.07121 -0.0504,-0.07121 -2.28921,-9.701389 -2.28924,-9.7013897 0.099,-0.12357902 0.099,-0.123579 4.37719,0.44326402 4.37723,0.443263 2.34545,9.8849917 2.34547,9.884991 z m 35.27778,0 -0.0847,0.04248 -4.3973,-0.474554 -4.39731,-0.474554 -0.0504,-0.07121 -0.0504,-0.07121 -2.28921,-9.701389 -2.28924,-9.7013897 0.099,-0.12357902 0.099,-0.123579 4.3772,0.44326402 4.37723,0.443263 2.34544,9.8849917 2.34548,9.884991 z"
       style="fill:#37d637;stroke-width:1" />
  </g>
</svg>
