<svg xmlns="http://www.w3.org/2000/svg" width="2807" height="116" fill="none" viewBox="0 0 2807 116">
  <path fill="#38D738" d="M13.045 27.192l53.172 2.77 27.08 57.153-53.171-2.77-27.08-57.153zM413.062 27.192l53.171 2.77 27.081 57.153-53.172-2.77-27.08-57.153zM813.078 27.192l53.172 2.77 27.08 57.153-53.171-2.77-27.081-57.153zM1213.09 27.192l53.18 2.77 27.08 57.153-53.17-2.77-27.09-57.153zM1613.11 27.192l53.17 2.77 27.08 57.153-53.17-2.77-27.08-57.153zM2013.13 27.192l53.17 2.77 27.08 57.153-53.17-2.77-27.08-57.153zM2413.14 27.192l53.18 2.77 27.08 57.153-53.18-2.77-27.08-57.153zM213.054 27.192l53.171 2.77 27.081 57.153-53.172-2.77-27.08-57.153zM613.07 27.192l53.172 2.77 27.08 57.153-53.171-2.77-27.081-57.153zM1013.09 27.192l53.17 2.77 27.08 57.153-53.17-2.77-27.08-57.153zM1413.1 27.192l53.17 2.77 27.09 57.153-53.18-2.77-27.08-57.153zM1813.12 27.192l53.17 2.77 27.08 57.153-53.17-2.77-27.08-57.153zM2213.14 27.192l53.17 2.77 27.08 57.153-53.17-2.77-27.08-57.153zM2613.15 27.192l53.17 2.77 27.08 57.153-53.17-2.77-27.08-57.153zM113.595 28.885l53.172 2.77 27.08 57.153-53.171-2.77-27.081-57.153zM513.612 28.885l53.171 2.77 27.081 57.153-53.172-2.77-27.08-57.153zM913.628 28.885l53.172 2.77 27.08 57.153-53.171-2.77-27.081-57.153zM1313.64 28.885l53.18 2.77 27.08 57.153-53.17-2.77-27.09-57.153zM1713.66 28.885l53.17 2.77 27.08 57.153-53.17-2.77-27.08-57.153zM2113.68 28.885l53.17 2.77 27.08 57.153-53.17-2.77-27.08-57.153zM2513.69 28.885l53.18 2.77 27.08 57.153-53.18-2.77-27.08-57.153zM313.604 28.885l53.171 2.77 27.081 57.153-53.172-2.77-27.08-57.153zM713.62 28.885l53.172 2.77 27.08 57.153-53.171-2.77-27.081-57.153zM1113.64 28.885l53.17 2.77 27.08 57.153-53.17-2.77-27.08-57.153zM1513.65 28.885l53.17 2.77 27.09 57.153-53.18-2.77-27.08-57.153zM1913.67 28.885l53.17 2.77 27.08 57.153-53.17-2.77-27.08-57.153zM2313.69 28.885l53.17 2.77 27.08 57.153-53.17-2.77-27.08-57.153zM2713.7 28.885l53.17 2.77 27.08 57.153-53.17-2.77-27.08-57.153z"/>
</svg>
